<?xml version="1.0" encoding="UTF-8"?> <svg xmlns="http://www.w3.org/2000/svg" width="415" height="223" viewBox="0 0 415 223" fill="none"> <circle cx="249.5" cy="114.5" r="88.5" fill="#E9856F"></circle> <g clip-path="url(#clip0_17_88)"> <path d="M37.9181 183.045L42.913 178.245L24.3997 158.979C26.6741 167.773 31.1984 176.052 37.9181 183.045Z" fill="#FFF2E9"></path> <path d="M22.535 147.183L47.7679 173.443L52.7629 168.643L23.0045 137.674C22.5919 140.815 22.4592 143.962 22.535 147.183Z" fill="#FFF2E9"></path> <path d="M24.6367 129.518L57.6864 163.912L62.6814 159.112L27.3004 122.292C26.2735 124.651 25.3865 127.013 24.6367 129.518Z" fill="#FFF2E9"></path> <path d="M30.7183 115.851L67.6763 154.312L72.6713 149.512L34.8219 110.124C33.315 111.983 31.8767 113.914 30.7183 115.851Z" fill="#FFF2E9"></path> <path d="M112.826 111.888L107.831 116.688L89.3174 97.4216C98.0138 100.045 106.106 104.895 112.826 111.888Z" fill="#FFF2E9"></path> <path d="M77.674 95.1599L102.907 121.419L97.912 126.219L68.085 95.1787C71.2402 94.8916 74.4613 94.8159 77.674 95.1599Z" fill="#FFF2E9"></path> <path d="M59.9388 96.5561L92.9885 130.95L87.9935 135.75L52.5439 98.8584C54.9422 97.9263 57.4062 97.2056 59.9388 96.5561Z" fill="#FFF2E9"></path> <path d="M46.0433 101.948L83.0014 140.41L78.0064 145.209L40.157 105.821C42.0039 104.458 44.0593 103.169 46.0433 101.948Z" fill="#FFF2E9"></path> <path d="M112.551 111.603L107.556 116.403L126.07 135.669C123.795 126.875 119.271 118.596 112.551 111.603Z" fill="#FFF2E9"></path> <path d="M127.866 147.393L102.633 121.134L97.6379 125.934L127.465 156.974C127.877 153.832 128.082 150.617 127.866 147.393Z" fill="#FFF2E9"></path> <path d="M125.764 165.058L92.7142 130.665L87.7192 135.464L123.169 172.356C124.196 169.996 125.014 167.563 125.764 165.058Z" fill="#FFF2E9"></path> <path d="M119.822 178.728L82.7957 140.196L77.8008 144.995L115.719 184.455C117.154 182.664 118.524 180.662 119.822 178.728Z" fill="#FFF2E9"></path> <path d="M37.6438 182.76L42.6388 177.96L61.1521 197.226C52.4556 194.603 44.3634 189.752 37.6438 182.76Z" fill="#FFF2E9"></path> <path d="M72.7952 199.488L47.5623 173.229L52.5572 168.429L82.3842 199.469C79.2289 199.756 76.0107 199.692 72.7952 199.488Z" fill="#FFF2E9"></path> <path d="M90.5306 198.092L57.481 163.698L62.4759 158.898L97.9255 195.789C95.5272 196.721 93.0632 197.442 90.5306 198.092Z" fill="#FFF2E9"></path> <path d="M104.429 192.559L67.4707 154.098L72.4657 149.298L110.384 188.759C108.397 190.119 106.41 191.479 104.429 192.559Z" fill="#FFF2E9"></path> </g> <g clip-path="url(#clip1_17_88)"> <path d="M301.918 111.045L306.913 106.245L288.4 86.9788C290.674 95.7729 295.198 104.052 301.918 111.045Z" fill="#FFF2E9"></path> <path d="M286.535 75.1834L311.768 101.443L316.763 96.6428L287.004 65.6741C286.592 68.8155 286.459 71.9624 286.535 75.1834Z" fill="#FFF2E9"></path> <path d="M288.637 57.5179L321.686 91.9117L326.681 87.112L291.3 50.2921C290.273 52.6512 289.387 55.0132 288.637 57.5179Z" fill="#FFF2E9"></path> <path d="M294.718 43.851L331.676 82.3121L336.671 77.5124L298.822 38.1236C297.315 39.9833 295.877 41.9143 294.718 43.851Z" fill="#FFF2E9"></path> <path d="M376.826 39.8881L371.831 44.6879L353.317 25.4216C362.014 28.0446 370.106 32.8952 376.826 39.8881Z" fill="#FFF2E9"></path> <path d="M341.674 23.1599L366.907 49.419L361.912 54.2188L332.085 23.1787C335.24 22.8916 338.461 22.8159 341.674 23.1599Z" fill="#FFF2E9"></path> <path d="M323.939 24.5561L356.988 58.9499L351.993 63.7497L316.544 26.8584C318.942 25.9263 321.406 25.2056 323.939 24.5561Z" fill="#FFF2E9"></path> <path d="M310.043 29.9484L347.001 68.4096L342.006 73.2093L304.157 33.8206C306.004 32.4576 308.059 31.1687 310.043 29.9484Z" fill="#FFF2E9"></path> <path d="M376.551 39.6028L371.556 44.4026L390.07 63.6688C387.795 54.8748 383.271 46.5958 376.551 39.6028Z" fill="#FFF2E9"></path> <path d="M391.866 75.393L366.633 49.1339L361.638 53.9336L391.465 84.9737C391.877 81.8323 392.082 78.6169 391.866 75.393Z" fill="#FFF2E9"></path> <path d="M389.764 93.0584L356.714 58.6646L351.719 63.4644L387.169 100.356C388.196 97.9964 389.014 95.5631 389.764 93.0584Z" fill="#FFF2E9"></path> <path d="M383.822 106.728L346.796 68.1956L341.801 72.9954L379.719 112.455C381.154 110.664 382.524 108.662 383.822 106.728Z" fill="#FFF2E9"></path> <path d="M301.644 110.76L306.639 105.96L325.152 125.226C316.456 122.603 308.363 117.752 301.644 110.76Z" fill="#FFF2E9"></path> <path d="M336.795 127.488L311.562 101.229L316.557 96.4288L346.384 127.469C343.229 127.756 340.011 127.692 336.795 127.488Z" fill="#FFF2E9"></path> <path d="M354.531 126.092L321.481 91.6978L326.476 86.898L361.925 123.789C359.527 124.721 357.063 125.442 354.531 126.092Z" fill="#FFF2E9"></path> <path d="M368.429 120.559L331.471 82.0981L336.466 77.2984L374.384 116.759C372.397 118.119 370.41 119.479 368.429 120.559Z" fill="#FFF2E9"></path> </g> <defs> <clipPath id="clip0_17_88"> <rect width="103.315" height="109.649" fill="white" transform="translate(0 143.585) rotate(-43.8583)"></rect> </clipPath> <clipPath id="clip1_17_88"> <rect width="103.315" height="109.649" fill="white" transform="translate(264 71.5847) rotate(-43.8583)"></rect> </clipPath> </defs> </svg> 