<svg width="18" height="18" viewBox="0 0 18 18" fill="none" xmlns="http://www.w3.org/2000/svg">
<path d="M6.75 11.8125C9.54594 11.8125 11.8125 9.54594 11.8125 6.75C11.8125 3.95406 9.54594 1.6875 6.75 1.6875C3.95406 1.6875 1.6875 3.95406 1.6875 6.75C1.6875 9.54594 3.95406 11.8125 6.75 11.8125Z" stroke="#3E74FF" stroke-width="1.5" stroke-linecap="round" stroke-linejoin="round"/>
<path d="M11.25 16.3125C14.0459 16.3125 16.3125 14.0459 16.3125 11.25C16.3125 8.45406 14.0459 6.1875 11.25 6.1875C8.45406 6.1875 6.1875 8.45406 6.1875 11.25C6.1875 14.0459 8.45406 16.3125 11.25 16.3125Z" stroke="#3E74FF" stroke-width="1.5" stroke-linecap="round" stroke-linejoin="round"/>
<path d="M8.6145 6.92694L11.0732 9.3856" stroke="#3E74FF" stroke-width="1.5" stroke-linecap="round" stroke-linejoin="round"/>
<path d="M6.92688 8.61438L9.38554 11.073" stroke="#3E74FF" stroke-width="1.5" stroke-linecap="round" stroke-linejoin="round"/>
</svg>
