<svg width="95" height="20" viewBox="0 0 95 20" fill="none" xmlns="http://www.w3.org/2000/svg">
<path d="M4.18479 11.2418C2.51705 11.2418 1.12212 10.8557 0 10.0836V7.24231C0.432377 7.6438 1.05006 7.99382 1.85304 8.29237C2.62514 8.58062 3.36636 8.72475 4.0767 8.72475C5.17823 8.72475 5.72899 8.44164 5.72899 7.87543C5.72899 7.64895 5.59001 7.43791 5.31206 7.24231C5.25029 7.19084 5.01866 7.09819 4.61717 6.96435L3.64432 6.67096L2.85678 6.43933L2.14644 6.16137C1.82731 6.03783 1.59053 5.92459 1.43611 5.82164C0.880196 5.40986 0.530176 5.08043 0.386051 4.83335C0.128684 4.33921 0 3.80903 0 3.24283C0 2.21336 0.375756 1.41552 1.12727 0.849312C1.88907 0.283104 2.92884 0 4.24656 0C5.56428 0 6.7842 0.298546 7.90632 0.895638V3.56711C7.42247 3.26856 6.85111 3.02149 6.19225 2.82589C5.5128 2.62 4.87453 2.51705 4.27744 2.51705C3.33033 2.51705 2.85678 2.75383 2.85678 3.22738C2.85678 3.43328 3.00605 3.59799 3.30459 3.72153L3.79874 3.89139C3.91198 3.93257 4.15391 4.00463 4.52451 4.10758C4.89512 4.21053 5.14734 4.28259 5.28117 4.32377C6.31064 4.66349 7.12392 5.09072 7.72101 5.60546C8.30781 6.1099 8.60121 6.83052 8.60121 7.76734C8.60121 8.8174 8.18942 9.66156 7.36585 10.2998C6.55257 10.9278 5.49221 11.2418 4.18479 11.2418Z" fill="#373A4A"/>
<path d="M12.9673 11.0256H10.1878V0.216188H12.9673V4.06125H17.044V0.216188H19.8236V11.0256H17.044V6.53198H12.9673V11.0256Z" fill="#373A4A"/>
<path d="M25.21 7.81367C25.7556 8.39017 26.435 8.67842 27.2483 8.67842C28.0513 8.67842 28.7256 8.39017 29.2712 7.81367C29.8168 7.23716 30.0896 6.50624 30.0896 5.6209C30.0896 4.73555 29.8168 4.00463 29.2712 3.42813C28.7256 2.85163 28.0513 2.56338 27.2483 2.56338C26.435 2.56338 25.7556 2.85163 25.21 3.42813C24.6746 3.99434 24.407 4.72526 24.407 5.6209C24.407 6.51654 24.6746 7.24746 25.21 7.81367ZM31.325 9.60494C30.2441 10.6962 28.8852 11.2418 27.2483 11.2418C25.6114 11.2418 24.2525 10.6962 23.1716 9.60494C22.0907 8.51371 21.5502 7.18569 21.5502 5.6209C21.5502 4.05611 22.0907 2.72809 23.1716 1.63685C24.2525 0.545618 25.6114 0 27.2483 0C28.8852 0 30.2441 0.545618 31.325 1.63685C32.4059 2.72809 32.9464 4.05611 32.9464 5.6209C32.9464 7.18569 32.4059 8.51371 31.325 9.60494Z" fill="#373A4A"/>
<path d="M37.4574 11.0256H34.6778V0.216188H39.4958C40.7105 0.216188 41.6679 0.530176 42.368 1.15815C43.0783 1.78613 43.4335 2.59941 43.4335 3.59799C43.4335 4.59658 43.0783 5.415 42.368 6.05328C41.6679 6.68125 40.7105 6.99524 39.4958 6.99524H37.4574V11.0256ZM37.4574 2.56338V4.70982H39.295C39.6965 4.70982 40.0156 4.61717 40.2524 4.43186C40.4995 4.23626 40.623 3.9686 40.623 3.62888C40.623 3.28915 40.5046 3.02664 40.2679 2.84133C40.0311 2.65603 39.7068 2.56338 39.295 2.56338H37.4574Z" fill="#373A4A"/>
<path d="M47.6681 11.0256H44.8885V0.216188H47.6681V11.0256Z" fill="#373A4A"/>
<path d="M55.4859 11.2418C53.7563 11.2418 52.3202 10.7168 51.1775 9.66671C50.0348 8.61665 49.4635 7.26805 49.4635 5.6209C49.4635 3.97375 50.0297 2.62514 51.1621 1.57509C52.3048 0.525029 53.7409 0 55.4704 0C56.4999 0 57.4315 0.205894 58.2654 0.617681V3.35092C57.4213 2.82589 56.4999 2.56338 55.5013 2.56338C54.5954 2.56338 53.8387 2.85163 53.2313 3.42813C52.6239 4.00463 52.3202 4.73555 52.3202 5.6209C52.3202 6.52683 52.6291 7.2629 53.2468 7.82911C53.8747 8.39532 54.6623 8.67842 55.6094 8.67842C56.7418 8.67842 57.6889 8.39017 58.4507 7.81367V10.5623C57.5654 11.0153 56.5771 11.2418 55.4859 11.2418Z" fill="#373A4A"/>
<path d="M62.2321 11.0256H59.2981L63.8381 0.15442H66.5095L71.0495 11.0256H68.0692L67.1581 8.74019H63.1432L62.2321 11.0256ZM65.1506 3.62888L64.0234 6.51654H66.2779L65.1506 3.62888Z" fill="#373A4A"/>
<path d="M75.0219 11.0256H72.2424V0.216188H77.3228C78.517 0.216188 79.459 0.530176 80.1487 1.15815C80.859 1.77583 81.2142 2.57367 81.2142 3.55167C81.2142 4.25171 81.0289 4.86939 80.6583 5.40471C80.2877 5.94003 79.7729 6.33638 79.1141 6.59375L82.3878 11.0256H79.1913L76.1338 6.90259H75.0219V11.0256ZM75.0219 2.56338V4.63261H77.1684C77.5493 4.63261 77.8478 4.5451 78.064 4.37009C78.2905 4.18479 78.4038 3.93257 78.4038 3.61343C78.4038 3.2943 78.2905 3.04208 78.064 2.85678C77.8478 2.66118 77.5493 2.56338 77.1684 2.56338H75.0219Z" fill="#373A4A"/>
<path d="M87.8005 11.0256H83.4921V0.216188H87.8005C89.5506 0.216188 90.9867 0.720628 92.1088 1.72951C93.2206 2.73839 93.7765 4.03552 93.7765 5.6209C93.7765 7.22687 93.2206 8.52915 92.1088 9.52773C91.0073 10.5263 89.5712 11.0256 87.8005 11.0256ZM86.2717 2.65603V8.58577H87.5997C88.6498 8.58577 89.4631 8.3284 90.0396 7.81367C90.6161 7.29893 90.9043 6.56801 90.9043 5.6209C90.9043 4.67379 90.6161 3.94286 90.0396 3.42813C89.4631 2.9134 88.6498 2.65603 87.5997 2.65603H86.2717Z" fill="#373A4A"/>
<path d="M52.8703 18.4249H52.3144V14.6957H52.8703V18.4249ZM52.3144 13.6919C52.2423 13.6147 52.2063 13.5221 52.2063 13.414C52.2063 13.3059 52.2423 13.2132 52.3144 13.136C52.3916 13.0588 52.4843 13.0202 52.5924 13.0202C52.7004 13.0202 52.7931 13.0588 52.8703 13.136C52.9475 13.2132 52.9861 13.3059 52.9861 13.414C52.9861 13.5221 52.9475 13.6147 52.8703 13.6919C52.7931 13.764 52.7004 13.8 52.5924 13.8C52.4843 13.8 52.3916 13.764 52.3144 13.6919Z" fill="#373A4A"/>
<path d="M54.2186 15.9079V18.4249H53.6627V14.6957H54.2186V15.267C54.6149 14.8243 55.1116 14.603 55.7087 14.603C56.1669 14.603 56.5169 14.7394 56.7588 15.0122C57.0059 15.2799 57.1294 15.6608 57.1294 16.1549V18.4249H56.5735V16.2785C56.5735 15.5115 56.2209 15.128 55.5157 15.128C55.2583 15.128 55.0087 15.2078 54.7668 15.3674C54.5197 15.527 54.337 15.7071 54.2186 15.9079Z" fill="#373A4A"/>
<path d="M59.0238 18.5176C58.7252 18.5176 58.4318 18.4815 58.1436 18.4095C57.8605 18.3323 57.6391 18.2396 57.4796 18.1315V17.5602C57.9325 17.8639 58.4421 18.0157 59.0083 18.0157C59.3275 18.0157 59.5771 17.9642 59.7573 17.8613C59.9426 17.7532 60.0352 17.6065 60.0352 17.4212C60.0352 17.2616 59.9477 17.1304 59.7727 17.0274C59.7212 16.9862 59.59 16.9399 59.3789 16.8884C59.3172 16.8678 59.2322 16.8473 59.1241 16.8267C58.9852 16.7906 58.9002 16.77 58.8694 16.7649C58.4009 16.6465 58.0664 16.5075 57.8656 16.348C57.6649 16.1832 57.5645 15.9465 57.5645 15.6376C57.5645 15.3133 57.6958 15.0611 57.9583 14.881C58.2208 14.6957 58.5888 14.603 59.0624 14.603C59.6234 14.603 60.0764 14.7137 60.4213 14.935V15.4832C59.9992 15.231 59.5539 15.1049 59.0855 15.1049C58.7715 15.1049 58.5322 15.1538 58.3675 15.2516C58.2079 15.3494 58.1281 15.4832 58.1281 15.6531C58.1281 15.8384 58.2234 15.9774 58.4138 16.07C58.4498 16.0803 58.4936 16.0983 58.5451 16.1241C58.6017 16.1446 58.6583 16.1627 58.7149 16.1781L58.8848 16.2244C59.0083 16.2656 59.1319 16.2939 59.2554 16.3094C59.7187 16.4226 60.0584 16.5616 60.2746 16.7263C60.4959 16.891 60.6066 17.1252 60.6066 17.4289C60.6066 17.7686 60.4573 18.0337 60.1588 18.2242C59.8602 18.4198 59.4819 18.5176 59.0238 18.5176Z" fill="#373A4A"/>
<path d="M61.6241 17.8304V19.9691H61.0682V14.6957H61.6241V15.2902C61.9741 14.8321 62.4554 14.603 63.068 14.603C63.6187 14.603 64.0691 14.7935 64.4191 15.1744C64.7691 15.5553 64.9442 16.016 64.9442 16.5564C64.9442 17.102 64.7691 17.5653 64.4191 17.9462C64.0691 18.3271 63.6187 18.5176 63.068 18.5176C62.4554 18.5176 61.9741 18.2885 61.6241 17.8304ZM61.6241 15.9465V17.1741C61.7322 17.4212 61.9072 17.6245 62.1492 17.7841C62.3911 17.9385 62.6536 18.0157 62.9367 18.0157C63.3536 18.0157 63.6959 17.8767 63.9636 17.5988C64.2364 17.3105 64.3728 16.9631 64.3728 16.5564C64.3728 16.1498 64.2364 15.8049 63.9636 15.5218C63.6959 15.2439 63.3536 15.1049 62.9367 15.1049C62.6587 15.1049 62.3988 15.1847 62.1569 15.3442C61.915 15.4986 61.7374 15.6994 61.6241 15.9465Z" fill="#373A4A"/>
<path d="M65.9999 18.4249H65.444V14.6957H65.9999V18.4249ZM65.444 13.6919C65.372 13.6147 65.3359 13.5221 65.3359 13.414C65.3359 13.3059 65.372 13.2132 65.444 13.136C65.5212 13.0588 65.6139 13.0202 65.722 13.0202C65.8301 13.0202 65.9227 13.0588 65.9999 13.136C66.0772 13.2132 66.1158 13.3059 66.1158 13.414C66.1158 13.5221 66.0772 13.6147 65.9999 13.6919C65.9227 13.764 65.8301 13.8 65.722 13.8C65.6139 13.8 65.5212 13.764 65.444 13.6919Z" fill="#373A4A"/>
<path d="M67.3482 18.4249H66.7923V14.6957H67.3482V15.406C67.4872 15.1641 67.6931 14.971 67.9659 14.8269C68.2387 14.6776 68.527 14.603 68.8307 14.603V15.1666C68.6608 15.1666 68.5064 15.1898 68.3674 15.2361C68.1306 15.2979 67.9222 15.406 67.742 15.5604C67.5618 15.7097 67.4306 15.8796 67.3482 16.07V18.4249Z" fill="#373A4A"/>
<path d="M70.8083 18.5176C70.2267 18.5176 69.7377 18.3348 69.3413 17.9694C68.9501 17.6091 68.7545 17.1406 68.7545 16.5641C68.7545 16.0082 68.9296 15.5424 69.2796 15.1666C69.6347 14.7909 70.0903 14.603 70.6462 14.603C70.9447 14.603 71.2098 14.6648 71.4415 14.7883C71.6731 14.9067 71.8558 15.0637 71.9896 15.2593C72.1235 15.4549 72.2238 15.6634 72.2908 15.8847C72.3577 16.1009 72.3911 16.3196 72.3911 16.541V16.6954H69.3259C69.3568 17.0969 69.5163 17.4186 69.8046 17.6605C70.098 17.8973 70.4686 18.0157 70.9164 18.0157C71.3488 18.0157 71.7477 17.8999 72.1132 17.6683V18.1624C71.8095 18.3992 71.3745 18.5176 70.8083 18.5176ZM69.3336 16.2399H71.8275C71.8121 15.9516 71.704 15.6917 71.5032 15.46C71.3128 15.2233 71.0194 15.1049 70.623 15.1049C70.2524 15.1049 69.9487 15.2181 69.7119 15.4446C69.4803 15.6762 69.3542 15.9413 69.3336 16.2399Z" fill="#373A4A"/>
<path d="M75.7186 18.5176C75.3737 18.5176 75.1112 18.4172 74.931 18.2164C74.756 18.0106 74.6685 17.7274 74.6685 17.3671V15.1821H73.7883V14.6957H74.6685V13.5452H75.2244V14.6957H76.5293V15.1821H75.2244V17.1973C75.2244 17.4958 75.2733 17.7017 75.3711 17.815C75.4741 17.9333 75.6414 17.9925 75.873 17.9925C76.0995 17.9925 76.3028 17.9411 76.483 17.8381V18.3477C76.3234 18.4609 76.0686 18.5176 75.7186 18.5176Z" fill="#373A4A"/>
<path d="M77.1541 15.1821C77.5299 14.796 78.0137 14.603 78.6056 14.603C79.1976 14.603 79.6814 14.796 80.0572 15.1821C80.433 15.5578 80.6208 16.0185 80.6208 16.5641C80.6208 17.1098 80.433 17.5705 80.0572 17.9462C79.6763 18.3271 79.1924 18.5176 78.6056 18.5176C78.0189 18.5176 77.535 18.3271 77.1541 17.9462C76.7783 17.5705 76.5905 17.1098 76.5905 16.5641C76.5905 16.0185 76.7783 15.5578 77.1541 15.1821ZM80.0495 16.5641C80.0495 16.1524 79.9131 15.8049 79.6403 15.5218C79.3675 15.2439 79.0226 15.1049 78.6056 15.1049C78.1887 15.1049 77.8438 15.2439 77.571 15.5218C77.2982 15.8049 77.1618 16.1524 77.1618 16.5641C77.1618 16.9708 77.2982 17.3157 77.571 17.5988C77.8438 17.8767 78.1887 18.0157 78.6056 18.0157C79.0226 18.0157 79.3675 17.8767 79.6403 17.5988C79.9131 17.3157 80.0495 16.9708 80.0495 16.5641Z" fill="#373A4A"/>
<path d="M82.4566 18.4249V13.0202H83.0125V15.2902C83.3626 14.8321 83.8438 14.603 84.4564 14.603C85.0071 14.603 85.4575 14.7935 85.8075 15.1744C86.1576 15.5553 86.3326 16.0185 86.3326 16.5641C86.3326 17.1046 86.1576 17.5653 85.8075 17.9462C85.4575 18.3271 85.0071 18.5176 84.4564 18.5176C83.8438 18.5176 83.3626 18.2885 83.0125 17.8304V18.4249H82.4566ZM83.0125 15.9465V17.1741C83.1258 17.4212 83.3034 17.6245 83.5453 17.7841C83.7872 17.9385 84.0471 18.0157 84.3251 18.0157C84.742 18.0157 85.0843 17.8767 85.352 17.5988C85.6248 17.3157 85.7612 16.9708 85.7612 16.5641C85.7612 16.1575 85.6248 15.8126 85.352 15.5295C85.0843 15.2464 84.742 15.1049 84.3251 15.1049C84.042 15.1049 83.7795 15.1847 83.5376 15.3442C83.2956 15.4986 83.1206 15.6994 83.0125 15.9465Z" fill="#373A4A"/>
<path d="M89.5966 17.2127V14.6957H90.1525V18.4249H89.5966V17.8536C89.2002 18.2962 88.7035 18.5176 88.1064 18.5176C87.6483 18.5176 87.2957 18.3837 87.0486 18.1161C86.8067 17.8433 86.6858 17.4598 86.6858 16.9656V14.6957H87.2417V16.8421C87.2417 17.6091 87.5943 17.9925 88.2994 17.9925C88.5568 17.9925 88.8039 17.9153 89.0407 17.7609C89.2929 17.5962 89.4782 17.4135 89.5966 17.2127Z" fill="#373A4A"/>
<path d="M91.0584 20C90.7907 20 90.5925 19.964 90.4639 19.8919V19.3746C90.6234 19.457 90.7933 19.4981 90.9734 19.4981C91.1999 19.4981 91.3955 19.4029 91.5602 19.2125C91.725 19.0272 91.8974 18.7183 92.0776 18.2859L90.4175 14.6957H91.0352L92.3555 17.6296L93.6372 14.6957H94.2394L92.3941 18.8418C92.0595 19.6139 91.6143 20 91.0584 20Z" fill="#373A4A"/>
</svg>
