<svg width="148" height="24" viewBox="0 0 148 24" fill="none" xmlns="http://www.w3.org/2000/svg">
<circle cx="10" cy="12" r="7" stroke="#3E74FF" stroke-width="2"/>
<circle cx="10" cy="12" r="9" stroke="#3E74FF" stroke-width="2"/>
<path d="M10.7998 12C10.7998 16.4183 10.7998 17 10.7998 20C6.38153 20 2.7998 16.4183 2.7998 12C2.7998 7.58172 6.38153 4 10.7998 4C10.7998 8 10.7998 7.58172 10.7998 12Z" fill="#3E74FF"/>
<path d="M31.9697 9.42764C31.9697 9.98477 32.7568 10.4635 34.3308 10.864C34.8844 10.9859 35.386 11.1338 35.8357 11.3079C36.2854 11.4646 36.7352 11.6997 37.1849 12.0131C37.6519 12.309 38.0152 12.7095 38.2746 13.2144C38.5341 13.7193 38.6638 14.3025 38.6638 14.9641C38.6638 16.3047 38.1622 17.3406 37.159 18.0718C36.1557 18.7856 34.919 19.1425 33.4487 19.1425C30.7849 19.1425 28.9687 18.1066 28 16.0348L30.906 14.3896C31.3038 15.5212 32.1514 16.0871 33.4487 16.0871C34.6422 16.0871 35.239 15.7127 35.239 14.9641C35.239 14.407 34.4519 13.9282 32.8779 13.5277C32.2898 13.3711 31.7881 13.2144 31.373 13.0577C30.9579 12.901 30.5081 12.6746 30.0238 12.3787C29.5395 12.0653 29.1676 11.6736 28.9081 11.2035C28.6659 10.716 28.5449 10.1502 28.5449 9.50599C28.5449 8.21763 29.0119 7.20784 29.946 6.47661C30.8973 5.72797 32.0735 5.35365 33.4746 5.35365C34.5298 5.35365 35.4898 5.59739 36.3546 6.08487C37.2195 6.55495 37.9028 7.23395 38.4044 8.12187L35.5503 9.68879C35.1352 8.80087 34.4433 8.35691 33.4746 8.35691C33.0422 8.35691 32.6789 8.46137 32.3849 8.67029C32.1081 8.86181 31.9697 9.11425 31.9697 9.42764Z" fill="#373A4A"/>
<path d="M48.0294 5.35365C49.465 5.35365 50.6326 5.83243 51.5321 6.78999C52.4661 7.76496 52.9332 9.08814 52.9332 10.7595V18.7769H49.5861V11.1774C49.5861 10.3243 49.3526 9.66268 48.8856 9.1926C48.4358 8.72252 47.8131 8.48749 47.0175 8.48749C46.1353 8.48749 45.4347 8.76605 44.9158 9.32318C44.4142 9.86289 44.1634 10.6638 44.1634 11.7258V18.7769H40.8163V0.496191H44.1634V7.18172C44.9591 5.963 46.2477 5.35365 48.0294 5.35365Z" fill="#373A4A"/>
<path d="M66.8441 17.1578C65.5295 18.481 63.9036 19.1425 61.9663 19.1425C60.0289 19.1425 58.403 18.481 57.0884 17.1578C55.7738 15.8346 55.1165 14.198 55.1165 12.2481C55.1165 10.3156 55.7738 8.6877 57.0884 7.36453C58.4203 6.02394 60.0462 5.35365 61.9663 5.35365C63.8863 5.35365 65.5122 6.02394 66.8441 7.36453C68.176 8.70511 68.842 10.333 68.842 12.2481C68.842 14.1806 68.176 15.8172 66.8441 17.1578ZM59.4495 14.8335C60.1241 15.5125 60.963 15.852 61.9663 15.852C62.9695 15.852 63.8084 15.5125 64.483 14.8335C65.1576 14.1545 65.4949 13.2927 65.4949 12.2481C65.4949 11.2035 65.1576 10.3417 64.483 9.66268C63.8084 8.98368 62.9695 8.64418 61.9663 8.64418C60.963 8.64418 60.1241 8.98368 59.4495 9.66268C58.7922 10.3591 58.4635 11.2209 58.4635 12.2481C58.4635 13.2753 58.7922 14.1371 59.4495 14.8335Z" fill="#373A4A"/>
<path d="M78.7469 5.35365C80.4939 5.35365 81.9815 6.02394 83.2096 7.36453C84.455 8.70511 85.0777 10.333 85.0777 12.2481C85.0777 14.198 84.455 15.8346 83.2096 17.1578C81.9988 18.481 80.5112 19.1425 78.7469 19.1425C76.9307 19.1425 75.5296 18.5071 74.5436 17.2361V24H71.1966V5.71926H74.5436V7.26007C75.5296 5.98912 76.9307 5.35365 78.7469 5.35365ZM75.5555 14.9119C76.2301 15.5909 77.0863 15.9304 78.1242 15.9304C79.162 15.9304 80.0182 15.5909 80.6928 14.9119C81.3847 14.2155 81.7307 13.3275 81.7307 12.2481C81.7307 11.1687 81.3847 10.2894 80.6928 9.61045C80.0182 8.91404 79.162 8.56583 78.1242 8.56583C77.0863 8.56583 76.2301 8.91404 75.5555 9.61045C74.8809 10.2894 74.5436 11.1687 74.5436 12.2481C74.5436 13.3275 74.8809 14.2155 75.5555 14.9119Z" fill="#373A4A"/>
<path d="M89.0988 4.15234C88.5452 4.15234 88.0609 3.95212 87.6458 3.55169C87.2479 3.13384 87.049 2.64635 87.049 2.08923C87.049 1.5321 87.2479 1.04461 87.6458 0.626768C88.0609 0.208923 88.5452 0 89.0988 0C89.6696 0 90.1539 0.208923 90.5517 0.626768C90.9669 1.04461 91.1744 1.5321 91.1744 2.08923C91.1744 2.64635 90.9669 3.13384 90.5517 3.55169C90.1539 3.95212 89.6696 4.15234 89.0988 4.15234ZM90.7853 18.7769H87.4382V5.71926H90.7853V18.7769Z" fill="#373A4A"/>
<path d="M99.1417 19.1425C97.1352 19.1425 95.5611 18.4548 94.4195 17.0794C93.2952 15.6692 92.8974 13.9717 93.226 11.9869C93.5201 10.0718 94.3936 8.48749 95.8466 7.23395C97.3341 5.98041 99.0466 5.35365 100.984 5.35365C102.298 5.35365 103.431 5.65832 104.383 6.26768C105.351 6.87704 106.043 7.70403 106.459 8.74864L103.423 10.3678C102.956 9.23613 102.048 8.67029 100.698 8.67029C99.7125 8.67029 98.8131 9.00109 98.0001 9.66268C97.239 10.3069 96.7633 11.1425 96.573 12.1697C96.4001 13.2144 96.5817 14.0849 97.1179 14.7813C97.6541 15.4603 98.4239 15.7998 99.4271 15.7998C100.776 15.7998 101.849 15.2165 102.644 14.0501L105.343 15.7998C104.686 16.8792 103.812 17.7062 102.722 18.2807C101.633 18.8553 100.439 19.1425 99.1417 19.1425Z" fill="#373A4A"/>
<path d="M118.246 7.46899L118.558 5.71926H121.905L119.621 18.7769H116.274L116.482 17.5756C115.358 18.6202 113.922 19.1425 112.175 19.1425C110.238 19.1425 108.785 18.42 107.816 16.975C106.865 15.5473 106.571 13.8672 106.934 11.9347C107.28 10.0718 108.11 8.5136 109.425 7.26007C110.757 5.98912 112.365 5.35365 114.251 5.35365C116.084 5.35365 117.416 6.05876 118.246 7.46899ZM113.213 15.9304C114.216 15.9304 115.107 15.6083 115.885 14.9641C116.664 14.3199 117.165 13.4842 117.39 12.457L117.442 12.0392C117.58 10.9946 117.364 10.1589 116.793 9.5321C116.223 8.88792 115.436 8.56583 114.432 8.56583C113.394 8.56583 112.486 8.89663 111.708 9.55822C110.947 10.2198 110.471 11.1077 110.281 12.222C110.091 13.3188 110.272 14.2155 110.826 14.9119C111.379 15.5909 112.175 15.9304 113.213 15.9304Z" fill="#373A4A"/>
<path d="M128.312 5.71926L127.949 7.80849C128.883 6.20675 130.336 5.42329 132.308 5.45811L131.659 9.21872C130.708 9.06202 129.782 9.25354 128.883 9.79325C128.001 10.3156 127.421 11.1861 127.145 12.4048L126.029 18.7769H122.682L124.965 5.71926H128.312Z" fill="#373A4A"/>
<path d="M143.433 7.52122L144.653 0.496191H148L144.809 18.7769H141.462L141.669 17.5234C140.545 18.6028 139.092 19.1425 137.31 19.1425C135.373 19.1425 133.92 18.42 132.951 16.975C132 15.5473 131.706 13.8672 132.069 11.9347C132.415 10.0718 133.245 8.5136 134.56 7.26007C135.892 5.98912 137.5 5.35365 139.386 5.35365C141.254 5.35365 142.603 6.07617 143.433 7.52122ZM138.374 15.9304C139.429 15.9304 140.346 15.5909 141.124 14.9119C141.92 14.2329 142.404 13.3536 142.577 12.2742C142.785 11.16 142.603 10.2633 142.032 9.58433C141.479 8.90533 140.675 8.56583 139.619 8.56583C138.582 8.56583 137.665 8.89663 136.869 9.55822C136.091 10.2198 135.606 11.1077 135.416 12.222C135.226 13.3188 135.407 14.2155 135.961 14.9119C136.532 15.5909 137.336 15.9304 138.374 15.9304Z" fill="#373A4A"/>
</svg>
