<svg width="188" height="55" viewBox="0 0 188 55" fill="none" xmlns="http://www.w3.org/2000/svg">
<path d="M4.37355 43H2.11755V35.016H4.37355V35.992C4.97088 35.2027 5.78155 34.808 6.80555 34.808C7.38155 34.808 7.89355 34.936 8.34155 35.192C8.80022 35.448 9.11488 35.7733 9.28555 36.168C9.55222 35.7627 9.93622 35.4373 10.4376 35.192C10.9389 34.936 11.4722 34.808 12.0375 34.808C12.9122 34.808 13.6056 35.0853 14.1176 35.64C14.6296 36.1947 14.8856 36.984 14.8856 38.008V43H12.6295V38.52C12.6295 37.4213 12.1869 36.872 11.3015 36.872C10.9602 36.872 10.6349 36.9733 10.3256 37.176C10.0162 37.3787 9.78688 37.64 9.63755 37.96V43H7.38155V38.52C7.38155 37.4213 6.93888 36.872 6.05355 36.872C5.73355 36.872 5.41355 36.9733 5.09355 37.176C4.77355 37.3787 4.53355 37.6293 4.37355 37.928V43ZM24.5301 41.256C24.7221 41.256 24.8767 41.224 24.9941 41.16V42.808C24.706 43.032 24.3007 43.144 23.778 43.144C22.8714 43.144 22.2687 42.8027 21.97 42.12C21.2661 42.8453 20.3487 43.208 19.2181 43.208C18.3434 43.208 17.634 42.9627 17.09 42.472C16.546 41.9813 16.274 41.336 16.274 40.536C16.274 39.6827 16.5834 39.032 17.202 38.584C17.8207 38.136 18.562 37.912 19.426 37.912C20.3327 37.912 21.1007 38.0773 21.7301 38.408V38.168C21.7301 37.1653 21.0261 36.664 19.6181 36.664C18.754 36.664 17.9487 36.888 17.202 37.336V35.448C18.0127 35.0213 18.9994 34.808 20.1621 34.808C21.3141 34.808 22.2314 35.0853 22.9141 35.64C23.618 36.1947 23.97 36.9627 23.97 37.944V40.648C23.97 41.0533 24.1567 41.256 24.5301 41.256ZM21.7301 40.648V39.848C21.2607 39.5387 20.7061 39.384 20.0661 39.384C19.5861 39.384 19.202 39.4747 18.914 39.656C18.6367 39.8373 18.498 40.0933 18.498 40.424C18.498 40.7653 18.626 41.0267 18.8821 41.208C19.138 41.3787 19.4847 41.464 19.922 41.464C20.7114 41.464 21.3141 41.192 21.7301 40.648ZM28.923 43H26.667V35.016H28.923V43ZM26.443 32.904C26.443 32.52 26.571 32.2 26.827 31.944C27.0937 31.6773 27.4137 31.544 27.7871 31.544C28.1604 31.544 28.475 31.6773 28.7311 31.944C28.9977 32.2 29.131 32.52 29.131 32.904C29.131 33.2773 28.9977 33.5973 28.7311 33.864C28.475 34.12 28.1604 34.248 27.7871 34.248C27.4137 34.248 27.0937 34.12 26.827 33.864C26.571 33.5973 26.443 33.2773 26.443 32.904ZM33.3705 43.208C32.7092 43.208 32.1865 43.032 31.8025 42.68C31.4292 42.3173 31.2425 41.7573 31.2425 41V31.8H33.4985V40.408C33.4985 40.9413 33.7386 41.208 34.2186 41.208C34.4426 41.208 34.6346 41.16 34.7945 41.064V42.92C34.4106 43.112 33.9359 43.208 33.3705 43.208ZM42.7683 45.592C40.8056 45.592 39.1576 44.9307 37.8243 43.608C36.4803 42.2747 35.8083 40.6 35.8083 38.584C35.8083 36.6107 36.4856 34.952 37.8403 33.608C39.195 32.2533 40.8376 31.576 42.7683 31.576C44.7416 31.576 46.3896 32.216 47.7123 33.496C49.0456 34.776 49.7123 36.3333 49.7123 38.168C49.7123 39.384 49.4403 40.3493 48.8963 41.064C48.3736 41.7787 47.6696 42.136 46.7843 42.136C45.7176 42.136 44.955 41.752 44.4963 40.984C44.251 41.336 43.915 41.6293 43.4883 41.864C43.0723 42.088 42.5923 42.2 42.0483 42.2C41.1203 42.2 40.3523 41.8587 39.7443 41.176C39.147 40.4827 38.8483 39.6293 38.8483 38.616C38.8483 37.6133 39.147 36.7653 39.7443 36.072C40.3416 35.3787 41.099 35.032 42.0163 35.032C42.9336 35.032 43.675 35.3787 44.2403 36.072V35.224H46.1763V39.768C46.1763 40.8347 46.5443 41.368 47.2803 41.368C47.7603 41.368 48.187 41.08 48.5603 40.504C48.923 39.9387 49.1043 39.16 49.1043 38.168C49.1043 36.5253 48.5176 35.1067 47.3443 33.912C46.1816 32.728 44.6563 32.136 42.7683 32.136C40.923 32.136 39.403 32.7653 38.2083 34.024C37.0136 35.2613 36.4163 36.7813 36.4163 38.584C36.4163 40.408 37.0136 41.9333 38.2083 43.16C39.403 44.408 40.923 45.032 42.7683 45.032C43.931 45.032 45.0883 44.712 46.2403 44.072V44.696C45.195 45.2933 44.0376 45.592 42.7683 45.592ZM42.6243 40.456C43.3283 40.456 43.867 40.1573 44.2403 39.56V37.672C43.867 37.0747 43.3283 36.776 42.6243 36.776C42.123 36.776 41.707 36.952 41.3763 37.304C41.0563 37.656 40.8963 38.0933 40.8963 38.616C40.8963 39.1387 41.0563 39.576 41.3763 39.928C41.707 40.28 42.123 40.456 42.6243 40.456ZM52.4232 46.296C51.7618 46.296 51.2285 46.1893 50.8232 45.976V44.008C51.1965 44.2213 51.6018 44.328 52.0392 44.328C52.4445 44.328 52.7805 44.2 53.0472 43.944C53.3245 43.6987 53.5805 43.2933 53.8152 42.728L50.3752 35.016H52.8072L54.9192 40.264L56.9192 35.016H59.3032L55.6072 43.832C54.9032 45.4747 53.8418 46.296 52.4232 46.296ZM62.0635 39C62.0635 39.64 62.2716 40.1733 62.6876 40.6C63.1036 41.0267 63.6316 41.24 64.2716 41.24C64.9116 41.24 65.4396 41.0267 65.8556 40.6C66.2716 40.1627 66.4796 39.6293 66.4796 39C66.4796 38.36 66.2716 37.832 65.8556 37.416C65.4396 36.9893 64.9116 36.776 64.2716 36.776C63.6316 36.776 63.1036 36.9893 62.6876 37.416C62.2716 37.832 62.0635 38.36 62.0635 39ZM59.8395 39C59.8395 37.816 60.2555 36.824 61.0875 36.024C61.9089 35.2133 62.9702 34.808 64.2716 34.808C65.5729 34.808 66.6342 35.2133 67.4556 36.024C68.2876 36.8347 68.7036 37.8267 68.7036 39C68.7036 40.1947 68.2876 41.1973 67.4556 42.008C66.6236 42.808 65.5622 43.208 64.2716 43.208C62.9809 43.208 61.9195 42.808 61.0875 42.008C60.2555 41.1973 59.8395 40.1947 59.8395 39ZM75.8075 40.104V35.016H78.0635V43H75.8075V42.04C75.0929 42.8187 74.2022 43.208 73.1356 43.208C72.2182 43.208 71.5035 42.92 70.9915 42.344C70.4795 41.7573 70.2235 40.9467 70.2235 39.912V35.016H72.4795V39.448C72.4795 40.024 72.6182 40.4507 72.8956 40.728C73.1835 41.0053 73.5515 41.144 73.9995 41.144C74.3409 41.144 74.6769 41.048 75.0076 40.856C75.3489 40.6533 75.6156 40.4027 75.8075 40.104ZM82.5298 43H80.2738V35.016H82.5298V36.36C82.7751 35.9333 83.1485 35.5707 83.6498 35.272C84.1725 34.9627 84.7271 34.808 85.3138 34.808C85.4418 34.808 85.5271 34.8133 85.5698 34.824V37.032C85.3565 36.9787 85.1218 36.952 84.8658 36.952C84.3431 36.952 83.8631 37.0907 83.4258 37.368C82.9991 37.6347 82.7005 37.96 82.5298 38.344V43ZM89.9834 43.208C88.5648 43.208 87.4448 42.9573 86.6234 42.456V40.456C87.0074 40.712 87.4928 40.9307 88.0794 41.112C88.6768 41.2827 89.2794 41.368 89.8874 41.368C90.8048 41.368 91.2634 41.144 91.2634 40.696C91.2634 40.4827 91.1301 40.3173 90.8634 40.2C90.7248 40.136 90.5861 40.088 90.4474 40.056L89.8554 39.912C89.7701 39.8907 89.6528 39.864 89.5034 39.832C89.3648 39.7893 89.2688 39.7573 89.2154 39.736C88.2661 39.48 87.5941 39.176 87.1994 38.824C86.8154 38.4613 86.6234 37.9387 86.6234 37.256C86.6234 36.4987 86.9328 35.9013 87.5514 35.464C88.1808 35.0267 89.0448 34.808 90.1434 34.808C91.3594 34.808 92.3568 35.0533 93.1354 35.544V37.464C92.1861 36.9093 91.2208 36.632 90.2394 36.632C89.3861 36.632 88.9594 36.8453 88.9594 37.272C88.9594 37.3573 88.9808 37.4373 89.0234 37.512C89.0768 37.576 89.1248 37.624 89.1674 37.656C89.2208 37.688 89.3008 37.736 89.4074 37.8C89.4714 37.8213 89.5888 37.8587 89.7594 37.912C89.9301 37.9547 90.0421 37.9867 90.0954 38.008L90.9434 38.184C91.8288 38.3867 92.4848 38.6907 92.9114 39.096C93.3381 39.4907 93.5514 40.0293 93.5514 40.712C93.5514 41.4587 93.2261 42.0613 92.5754 42.52C91.9248 42.9787 91.0608 43.208 89.9834 43.208ZM97.4829 37.912V43H95.2269V31.8H97.4829V35.992C98.2083 35.2027 99.0989 34.808 100.155 34.808C101.072 34.808 101.787 35.1013 102.299 35.688C102.811 36.264 103.067 37.0693 103.067 38.104V43H100.811V38.568C100.811 37.992 100.667 37.5653 100.379 37.288C100.102 37.0107 99.7389 36.872 99.2909 36.872C98.9496 36.872 98.6083 36.9733 98.2669 37.176C97.9363 37.368 97.6749 37.6133 97.4829 37.912ZM106.814 39C106.814 39.64 107.022 40.1733 107.438 40.6C107.854 41.0267 108.382 41.24 109.022 41.24C109.662 41.24 110.19 41.0267 110.606 40.6C111.022 40.1627 111.23 39.6293 111.23 39C111.23 38.36 111.022 37.832 110.606 37.416C110.19 36.9893 109.662 36.776 109.022 36.776C108.382 36.776 107.854 36.9893 107.438 37.416C107.022 37.832 106.814 38.36 106.814 39ZM104.59 39C104.59 37.816 105.006 36.824 105.838 36.024C106.659 35.2133 107.72 34.808 109.022 34.808C110.323 34.808 111.384 35.2133 112.206 36.024C113.038 36.8347 113.454 37.8267 113.454 39C113.454 40.1947 113.038 41.1973 112.206 42.008C111.374 42.808 110.312 43.208 109.022 43.208C107.731 43.208 106.67 42.808 105.838 42.008C105.006 41.1973 104.59 40.1947 104.59 39ZM119.998 34.808C121.086 34.808 121.982 35.2133 122.686 36.024C123.4 36.8133 123.758 37.8107 123.758 39.016C123.758 40.2 123.4 41.1973 122.686 42.008C121.982 42.808 121.086 43.208 119.998 43.208C118.878 43.208 118.003 42.8133 117.374 42.024V46.2H115.118V35.016H117.374V35.992C117.971 35.2027 118.846 34.808 119.998 34.808ZM119.358 36.776C118.931 36.776 118.542 36.888 118.19 37.112C117.838 37.336 117.566 37.624 117.374 37.976V40.056C117.566 40.408 117.838 40.696 118.19 40.92C118.542 41.1333 118.931 41.24 119.358 41.24C119.998 41.24 120.515 41.0267 120.91 40.6C121.315 40.1627 121.518 39.6347 121.518 39.016C121.518 38.3867 121.315 37.8533 120.91 37.416C120.515 36.9893 119.998 36.776 119.358 36.776ZM127.782 43H125.526V35.016H127.782V43ZM125.302 32.904C125.302 32.52 125.43 32.2 125.686 31.944C125.953 31.6773 126.273 31.544 126.646 31.544C127.02 31.544 127.334 31.6773 127.59 31.944C127.857 32.2 127.99 32.52 127.99 32.904C127.99 33.2773 127.857 33.5973 127.59 33.864C127.334 34.12 127.02 34.248 126.646 34.248C126.273 34.248 125.953 34.12 125.686 33.864C125.43 33.5973 125.302 33.2773 125.302 32.904ZM132.966 36.904V43H130.71V36.904H129.286V35.016H130.71V34.264C130.71 33.4533 130.945 32.808 131.414 32.328C131.883 31.848 132.55 31.608 133.414 31.608C134.193 31.608 134.87 31.72 135.446 31.944V33.768C134.966 33.5867 134.507 33.496 134.07 33.496C133.334 33.496 132.966 33.8533 132.966 34.568V35.016H135.446V36.904H132.966ZM138.095 46.296C137.434 46.296 136.9 46.1893 136.495 45.976V44.008C136.868 44.2213 137.274 44.328 137.711 44.328C138.116 44.328 138.452 44.2 138.719 43.944C138.996 43.6987 139.252 43.2933 139.487 42.728L136.047 35.016H138.479L140.591 40.264L142.591 35.016H144.975L141.279 43.832C140.575 45.4747 139.514 46.296 138.095 46.296ZM145.891 43.176C145.497 43.176 145.166 43.0427 144.899 42.776C144.633 42.4987 144.499 42.1627 144.499 41.768C144.499 41.384 144.633 41.0587 144.899 40.792C145.166 40.5253 145.497 40.392 145.891 40.392C146.275 40.392 146.601 40.5253 146.867 40.792C147.145 41.0587 147.283 41.384 147.283 41.768C147.283 42.1627 147.145 42.4987 146.867 42.776C146.601 43.0427 146.275 43.176 145.891 43.176ZM152.582 43.208C151.398 43.208 150.379 42.824 149.526 42.056C148.672 41.2667 148.246 40.2427 148.246 38.984C148.246 37.7253 148.672 36.7173 149.526 35.96C150.39 35.192 151.419 34.808 152.614 34.808C153.488 34.808 154.278 34.984 154.982 35.336V37.256C154.288 36.936 153.611 36.776 152.95 36.776C152.246 36.776 151.654 36.984 151.174 37.4C150.704 37.8053 150.47 38.3387 150.47 39C150.47 39.6613 150.71 40.2 151.19 40.616C151.67 41.032 152.256 41.24 152.95 41.24C153.771 41.24 154.491 41.0587 155.11 40.696V42.616C154.363 43.0107 153.52 43.208 152.582 43.208ZM158.564 39C158.564 39.64 158.772 40.1733 159.188 40.6C159.604 41.0267 160.132 41.24 160.772 41.24C161.412 41.24 161.94 41.0267 162.356 40.6C162.772 40.1627 162.98 39.6293 162.98 39C162.98 38.36 162.772 37.832 162.356 37.416C161.94 36.9893 161.412 36.776 160.772 36.776C160.132 36.776 159.604 36.9893 159.188 37.416C158.772 37.832 158.564 38.36 158.564 39ZM156.34 39C156.34 37.816 156.756 36.824 157.588 36.024C158.409 35.2133 159.47 34.808 160.772 34.808C162.073 34.808 163.134 35.2133 163.956 36.024C164.788 36.8347 165.204 37.8267 165.204 39C165.204 40.1947 164.788 41.1973 163.956 42.008C163.124 42.808 162.062 43.208 160.772 43.208C159.481 43.208 158.42 42.808 157.588 42.008C156.756 41.1973 156.34 40.1947 156.34 39ZM169.124 43H166.868V35.016H169.124V35.992C169.721 35.2027 170.532 34.808 171.556 34.808C172.132 34.808 172.644 34.936 173.092 35.192C173.55 35.448 173.865 35.7733 174.036 36.168C174.302 35.7627 174.686 35.4373 175.188 35.192C175.689 34.936 176.222 34.808 176.788 34.808C177.662 34.808 178.356 35.0853 178.868 35.64C179.38 36.1947 179.636 36.984 179.636 38.008V43H177.38V38.52C177.38 37.4213 176.937 36.872 176.052 36.872C175.71 36.872 175.385 36.9733 175.076 37.176C174.766 37.3787 174.537 37.64 174.388 37.96V43H172.132V38.52C172.132 37.4213 171.689 36.872 170.804 36.872C170.484 36.872 170.164 36.9733 169.844 37.176C169.524 37.3787 169.284 37.6293 169.124 37.928V43Z" fill="#F79141"/>
<path d="M12.6128 22H8.32282V12.58L0.192817 0.999999H5.29282L10.5128 8.47L15.7628 0.999999H20.7128L12.6128 12.49V22ZM22.6066 14.5C22.6066 15.7 22.9966 16.7 23.7766 17.5C24.5566 18.3 25.5466 18.7 26.7466 18.7C27.9466 18.7 28.9366 18.3 29.7166 17.5C30.4966 16.68 30.8866 15.68 30.8866 14.5C30.8866 13.3 30.4966 12.31 29.7166 11.53C28.9366 10.73 27.9466 10.33 26.7466 10.33C25.5466 10.33 24.5566 10.73 23.7766 11.53C22.9966 12.31 22.6066 13.3 22.6066 14.5ZM18.4366 14.5C18.4366 12.28 19.2166 10.42 20.7766 8.92C22.3166 7.4 24.3066 6.64 26.7466 6.64C29.1866 6.64 31.1766 7.4 32.7166 8.92C34.2766 10.44 35.0566 12.3 35.0566 14.5C35.0566 16.74 34.2766 18.62 32.7166 20.14C31.1566 21.64 29.1666 22.39 26.7466 22.39C24.3266 22.39 22.3366 21.64 20.7766 20.14C19.2166 18.62 18.4366 16.74 18.4366 14.5ZM48.3766 16.57V7.03H52.6066V22H48.3766V20.2C47.0366 21.66 45.3666 22.39 43.3666 22.39C41.6466 22.39 40.3066 21.85 39.3466 20.77C38.3866 19.67 37.9066 18.15 37.9066 16.21V7.03H42.1366V15.34C42.1366 16.42 42.3966 17.22 42.9166 17.74C43.4566 18.26 44.1466 18.52 44.9866 18.52C45.6266 18.52 46.2566 18.34 46.8766 17.98C47.5166 17.6 48.0166 17.13 48.3766 16.57ZM60.9808 22H56.7508V7.03H60.9808V9.55C61.4408 8.75 62.1408 8.07 63.0808 7.51C64.0608 6.93 65.1008 6.64 66.2008 6.64C66.4408 6.64 66.6008 6.65 66.6808 6.67V10.81C66.2808 10.71 65.8408 10.66 65.3608 10.66C64.3808 10.66 63.4808 10.92 62.6608 11.44C61.8608 11.94 61.3008 12.55 60.9808 13.27V22ZM82.6321 22.39C79.9721 22.39 77.8721 21.92 76.3321 20.98V17.23C77.0521 17.71 77.9621 18.12 79.0621 18.46C80.1821 18.78 81.3121 18.94 82.4521 18.94C84.1721 18.94 85.0321 18.52 85.0321 17.68C85.0321 17.28 84.7821 16.97 84.2821 16.75C84.0221 16.63 83.7621 16.54 83.5021 16.48L82.3921 16.21C82.2321 16.17 82.0121 16.12 81.7321 16.06C81.4721 15.98 81.2921 15.92 81.1921 15.88C79.4121 15.4 78.1521 14.83 77.4121 14.17C76.6921 13.49 76.3321 12.51 76.3321 11.23C76.3321 9.81 76.9121 8.69 78.0721 7.87C79.2521 7.05 80.8721 6.64 82.9321 6.64C85.2121 6.64 87.0821 7.1 88.5421 8.02V11.62C86.7621 10.58 84.9521 10.06 83.1121 10.06C81.5121 10.06 80.7121 10.46 80.7121 11.26C80.7121 11.42 80.7521 11.57 80.8321 11.71C80.9321 11.83 81.0221 11.92 81.1021 11.98C81.2021 12.04 81.3521 12.13 81.5521 12.25C81.6721 12.29 81.8921 12.36 82.2121 12.46C82.5321 12.54 82.7421 12.6 82.8421 12.64L84.4321 12.97C86.0921 13.35 87.3221 13.92 88.1221 14.68C88.9221 15.42 89.3221 16.43 89.3221 17.71C89.3221 19.11 88.7121 20.24 87.4921 21.1C86.2721 21.96 84.6521 22.39 82.6321 22.39ZM96.6937 12.46V22H92.4637V0.999999H96.6937V8.86C98.0537 7.38 99.7237 6.64 101.704 6.64C103.424 6.64 104.764 7.19 105.724 8.29C106.684 9.37 107.164 10.88 107.164 12.82V22H102.934V13.69C102.934 12.61 102.664 11.81 102.124 11.29C101.604 10.77 100.924 10.51 100.084 10.51C99.4437 10.51 98.8037 10.7 98.1637 11.08C97.5437 11.44 97.0537 11.9 96.6937 12.46ZM114.189 14.5C114.189 15.7 114.579 16.7 115.359 17.5C116.139 18.3 117.129 18.7 118.329 18.7C119.529 18.7 120.519 18.3 121.299 17.5C122.079 16.68 122.469 15.68 122.469 14.5C122.469 13.3 122.079 12.31 121.299 11.53C120.519 10.73 119.529 10.33 118.329 10.33C117.129 10.33 116.139 10.73 115.359 11.53C114.579 12.31 114.189 13.3 114.189 14.5ZM110.019 14.5C110.019 12.28 110.799 10.42 112.359 8.92C113.899 7.4 115.889 6.64 118.329 6.64C120.769 6.64 122.759 7.4 124.299 8.92C125.859 10.44 126.639 12.3 126.639 14.5C126.639 16.74 125.859 18.62 124.299 20.14C122.739 21.64 120.749 22.39 118.329 22.39C115.909 22.39 113.919 21.64 112.359 20.14C110.799 18.62 110.019 16.74 110.019 14.5ZM138.909 6.64C140.949 6.64 142.629 7.4 143.949 8.92C145.289 10.4 145.959 12.27 145.959 14.53C145.959 16.75 145.289 18.62 143.949 20.14C142.629 21.64 140.949 22.39 138.909 22.39C136.809 22.39 135.169 21.65 133.989 20.17V28H129.759V7.03H133.989V8.86C135.109 7.38 136.749 6.64 138.909 6.64ZM137.709 10.33C136.909 10.33 136.179 10.54 135.519 10.96C134.859 11.38 134.349 11.92 133.989 12.58V16.48C134.349 17.14 134.859 17.68 135.519 18.1C136.179 18.5 136.909 18.7 137.709 18.7C138.909 18.7 139.879 18.3 140.619 17.5C141.379 16.68 141.759 15.69 141.759 14.53C141.759 13.35 141.379 12.35 140.619 11.53C139.879 10.73 138.909 10.33 137.709 10.33ZM153.505 22H149.275V7.03H153.505V22ZM148.855 3.07C148.855 2.35 149.095 1.75 149.575 1.27C150.075 0.769999 150.675 0.519999 151.375 0.519999C152.075 0.519999 152.665 0.769999 153.145 1.27C153.645 1.75 153.895 2.35 153.895 3.07C153.895 3.77 153.645 4.37 153.145 4.87C152.665 5.35 152.075 5.59 151.375 5.59C150.675 5.59 150.075 5.35 149.575 4.87C149.095 4.37 148.855 3.77 148.855 3.07ZM163.224 10.57V22H158.994V10.57H156.324V7.03H158.994V5.62C158.994 4.1 159.434 2.89 160.314 1.99C161.194 1.09 162.444 0.64 164.064 0.64C165.524 0.64 166.794 0.849999 167.874 1.27V4.69C166.974 4.35 166.114 4.18 165.294 4.18C163.914 4.18 163.224 4.85 163.224 6.19V7.03H167.874V10.57H163.224ZM172.841 28.18C171.601 28.18 170.601 27.98 169.841 27.58V23.89C170.541 24.29 171.301 24.49 172.121 24.49C172.881 24.49 173.511 24.25 174.011 23.77C174.531 23.31 175.011 22.55 175.451 21.49L169.001 7.03H173.561L177.521 16.87L181.271 7.03H185.741L178.811 23.56C177.491 26.64 175.501 28.18 172.841 28.18Z" fill="#373A4A"/>
</svg>
