<?xml version="1.0" encoding="UTF-8"?> <svg xmlns="http://www.w3.org/2000/svg" width="83" height="83" viewBox="0 0 83 83" fill="none"> <circle cx="41.5" cy="41.5" r="41" stroke="#E9856F"></circle> <circle cx="41.5" cy="41.5" r="37.2" stroke="white" stroke-opacity="0.45" stroke-width="0.6"></circle> <path d="M21.8484 44.2089C20.021 44.2089 18.5752 42.7214 18.5752 40.9358C18.5752 39.1084 20.0627 37.6626 21.8484 37.6626C23.6323 37.6626 25.1215 39.1518 25.1215 40.9358C25.1215 42.7198 23.6323 44.2089 21.8484 44.2089Z" fill="white" stroke="black" stroke-width="0.4"></path> <path d="M53.1516 26.1215C51.3242 26.1215 49.8785 24.634 49.8785 22.8484C49.8785 21.021 51.3659 19.5752 53.1516 19.5752C54.979 19.5752 56.4247 21.0627 56.4247 22.8484C56.4247 24.6323 54.9356 26.1215 53.1516 26.1215Z" fill="white" stroke="black" stroke-width="0.4"></path> <path d="M53.1516 62.2511C51.3242 62.2511 49.8785 60.7637 49.8785 58.978C49.8785 57.1506 51.3659 55.7049 53.1516 55.7049C54.979 55.7049 56.4247 57.1923 56.4247 58.978C56.4247 60.8054 54.9373 62.2511 53.1516 62.2511Z" fill="white" stroke="black" stroke-width="0.4"></path> <path d="M27.4868 36.6899L40.7744 29.0206L41.6117 30.4711L28.3241 38.1405L27.4868 36.6899Z" fill="#E9856F" stroke="black" stroke-width="0.4"></path> <path d="M21.8484 48.539C17.6287 48.539 14.2 45.1103 14.2 40.8906C14.2 36.6709 17.6287 33.2422 21.8484 33.2422C26.068 33.2422 29.4967 36.6709 29.4967 40.8906C29.4967 45.1103 26.068 48.539 21.8484 48.539ZM21.8484 34.9622C18.5354 34.9622 15.8749 37.6228 15.8749 40.9357C15.8749 44.2487 18.5354 46.9092 21.8484 46.9092C25.1613 46.9092 27.8219 44.2487 27.8219 40.9357C27.8219 37.6217 25.1152 34.9622 21.8484 34.9622Z" fill="#E9856F" stroke="black" stroke-width="0.4"></path> <path d="M53.1516 30.4967C48.9319 30.4967 45.5032 27.068 45.5032 22.8484C45.5032 18.6287 48.9319 15.2 53.1516 15.2C57.3709 15.2 60.7994 18.6281 60.8 22.8473C60.7554 27.0693 57.3247 30.4967 53.1516 30.4967ZM53.1516 16.8749C49.8386 16.8749 47.1781 19.5354 47.1781 22.8484C47.1781 26.1152 49.8376 28.8219 53.1516 28.8219C56.4645 28.8219 59.1251 26.1613 59.1251 22.8484C59.1251 19.5344 56.4184 16.8749 53.1516 16.8749Z" fill="#E9856F" stroke="black" stroke-width="0.4"></path> <path d="M53.1516 66.6264C48.9319 66.6264 45.5032 63.1977 45.5032 58.978C45.5032 54.7583 48.9319 51.3296 53.1516 51.3296C57.3713 51.3296 60.8 54.7583 60.8 58.978C60.8 63.1969 57.3269 66.6264 53.1516 66.6264ZM53.1516 53.0045C49.8386 53.0045 47.1781 55.6651 47.1781 58.978C47.1781 62.291 49.8386 64.9515 53.1516 64.9515C56.4645 64.9515 59.1251 62.291 59.1251 58.978C59.1251 55.7102 56.4194 53.0045 53.1516 53.0045Z" fill="#E9856F" stroke="black" stroke-width="0.4"></path> <path d="M31.5942 47.5215L32.4317 46.0711L47.4755 54.7569L46.638 56.2073L31.5942 47.5215Z" fill="#E9856F" stroke="black" stroke-width="0.4"></path> </svg> 