<?xml version="1.0" encoding="UTF-8"?> <svg xmlns="http://www.w3.org/2000/svg" width="83" height="83" viewBox="0 0 83 83" fill="none"> <circle cx="41.5" cy="41.5" r="41" stroke="#E9856F"></circle> <circle cx="41.5" cy="41.5" r="37.2" stroke="white" stroke-opacity="0.45" stroke-width="0.6"></circle> <path d="M21.9876 28.9876H59.9688V49.3883H21.9876V28.9876Z" fill="white" stroke="black" stroke-width="0.4"></path> <path d="M37.7837 42.7592V35.6167L44.0136 39.1879L37.7837 42.7592Z" fill="#1B1919" stroke="black" stroke-width="0.4"></path> <path d="M17.8017 53.3742V53.5742H18.0017H63.9983H64.1983V53.3742V25.0017V24.8017H63.9983H18.0017H17.8017V25.0017V53.3742ZM65.8 55.176H16.2V23.2H65.8V55.176Z" fill="#E9856F" stroke="black" stroke-width="0.4"></path> <path d="M31.3433 60.0147H65.7997V61.6164H31.3433V60.0147Z" fill="#E9856F" stroke="black" stroke-width="0.4"></path> <path d="M16.2 60.0147H22.5885V61.6164H16.2V60.0147Z" fill="#E9856F" stroke="black" stroke-width="0.4"></path> <path d="M24.0071 63.7921C22.3334 63.7921 20.9869 62.4457 20.9869 60.772C20.9869 59.0982 22.3334 57.7518 24.0071 57.7518C25.6799 57.7518 27.0259 59.0969 27.0272 60.7695C26.985 62.4486 25.6338 63.7921 24.0071 63.7921ZM24.0071 59.397C23.2485 59.397 22.5886 60.0041 22.5886 60.8155C22.5886 61.6222 23.2003 62.2339 24.0071 62.2339C24.7656 62.2339 25.4255 61.6268 25.4255 60.8155C25.4255 60.0041 24.7656 59.397 24.0071 59.397Z" fill="#E9856F" stroke="black" stroke-width="0.4"></path> </svg> 