<?xml version="1.0" encoding="UTF-8"?> <svg xmlns="http://www.w3.org/2000/svg" width="83" height="83" viewBox="0 0 83 83" fill="none"> <circle cx="41.5" cy="41.5" r="41" stroke="#E9856F"></circle> <circle cx="41.5" cy="41.5" r="37.2" stroke="white" stroke-opacity="0.45" stroke-width="0.6"></circle> <path d="M28.0957 66.9126C24.9783 66.9126 22.8046 65.998 21.8089 64.2858C20.5935 62.1731 21.3345 59.1746 23.7638 55.8362C26.156 52.5489 30.1411 48.9997 35.2877 45.7855L36.0849 47.081C31.0604 50.2263 27.4161 53.5455 25.2252 56.4529C24.1178 57.9222 23.3762 59.2937 23.0192 60.4906C22.6629 61.6848 22.6827 62.7313 23.1406 63.5214C23.6437 64.3903 24.6547 64.9444 26.019 65.2012C27.3424 65.4504 29.0285 65.4264 30.9912 65.1187L31.2245 66.6186C30.0979 66.8381 29.0791 66.9126 28.0957 66.9126Z" fill="#E9856F" stroke="#1B1919" stroke-width="0.4"></path> <path d="M45.5619 59.5674L45.563 59.5668C49.306 57.3798 52.7185 54.8953 55.3346 52.2793C57.4205 50.2354 58.9366 48.2459 59.7836 46.504C60.6255 44.7725 60.8301 43.2328 60.1907 42.1367C59.6208 41.1567 58.434 40.5745 56.8407 40.3613C55.2858 40.1533 53.3055 40.2904 51.0253 40.7829L50.693 39.2875C53.4444 38.719 55.7704 38.6212 57.5948 38.968C59.4597 39.3225 60.7847 40.1373 61.5232 41.3736C62.3197 42.7691 62.2936 44.5444 61.4328 46.5961C60.5712 48.6493 58.8818 50.9557 56.3967 53.3782L56.396 53.3789C53.6838 56.0493 50.1745 58.6403 46.2847 60.8989C44.9615 61.6607 43.5637 62.4213 42.201 63.071L41.5332 61.6686C42.8628 61.022 44.231 60.3337 45.5619 59.5674Z" fill="#E9856F" stroke="#1B1919" stroke-width="0.4"></path> <path d="M37.8121 59.5253L37.8121 59.5254C42.8603 62.4281 48.0432 64.4106 52.3946 65.0866C54.3797 65.4034 56.0933 65.427 57.435 65.164C58.7735 64.9016 59.7728 64.347 60.2752 63.4793C60.7332 62.6892 60.753 61.6426 60.3967 60.4484C60.0397 59.2515 59.298 57.88 58.1907 56.4106C55.9997 53.5033 52.3554 50.1841 47.3309 47.0388L48.1282 45.7433C53.2748 48.9575 57.2599 52.5067 59.652 55.794C62.0811 59.132 62.8222 62.1303 61.6073 64.2429C60.569 65.9992 58.4349 66.9123 55.2782 66.9123C54.3247 66.9123 53.2442 66.8294 52.1204 66.6629C47.6207 65.9545 42.2332 63.91 37.0052 60.8987C31.9237 57.9501 27.7378 54.5347 24.961 51.2579C23.5726 49.6193 22.5408 48.0205 21.9237 46.5368C21.3406 45.1347 21.1324 43.847 21.3306 42.7285L22.8306 43.0619C22.6962 43.9442 22.9133 45.0074 23.4362 46.1787C24.0001 47.4419 24.9286 48.8516 26.1982 50.3323C28.7378 53.2943 32.6578 56.559 37.8121 59.5253Z" fill="#E9856F" stroke="#1B1919" stroke-width="0.4"></path> <path d="M26.3017 40.4758C26.3017 41.8755 25.1328 43.0444 23.7331 43.0444C22.3335 43.0444 21.1646 41.8755 21.1646 40.4758C21.1646 39.0762 22.3335 37.9073 23.7331 37.9073C25.1348 37.9073 26.3017 39.0362 26.3017 40.4758Z" fill="#F96232" stroke="#1B1919" stroke-width="0.4"></path> <path d="M23.7333 44.0091C21.7884 44.0091 20.2 42.4208 20.2 40.4758C20.2 38.5308 21.7884 36.9424 23.7333 36.9424C25.6783 36.9424 27.2667 38.5308 27.2667 40.4758C27.2667 42.4208 25.6783 44.0091 23.7333 44.0091ZM23.7333 38.472C22.6161 38.472 21.7296 39.3586 21.7296 40.4758C21.7296 41.593 22.6161 42.4795 23.7333 42.4795C24.8505 42.4795 25.7371 41.593 25.7371 40.4758C25.7371 39.3586 24.8505 38.472 23.7333 38.472Z" fill="#E9856F" stroke="#1B1919" stroke-width="0.4"></path> <path d="M36.579 65.2666C36.579 66.6663 35.4101 67.8351 34.0105 67.8351C32.6108 67.8351 31.4419 66.6663 31.4419 65.2666C31.4419 63.8669 32.6108 62.698 34.0105 62.698C35.4501 62.698 36.579 63.865 36.579 65.2666Z" fill="#F96232" stroke="#1B1919" stroke-width="0.4"></path> <path d="M34.0104 68.8001C32.0655 68.8001 30.4771 67.2118 30.4771 65.2668C30.4771 63.3218 32.0655 61.7334 34.0104 61.7334C35.9554 61.7334 37.5438 63.3218 37.5438 65.2668C37.5438 67.2118 35.9554 68.8001 34.0104 68.8001ZM34.0104 63.263C32.8932 63.263 32.0067 64.1496 32.0067 65.2668C32.0067 66.384 32.8932 67.2705 34.0104 67.2705C35.1276 67.2705 36.0142 66.384 36.0142 65.2668C36.0142 64.1946 35.1306 63.263 34.0104 63.263Z" fill="#E9856F" stroke="#1B1919" stroke-width="0.4"></path> <path d="M46.627 48.2684H48.1566V53.9927H46.627V48.2684Z" fill="#E9856F" stroke="#1B1919" stroke-width="0.4"></path> <path d="M35.2173 48.2684H36.7469V53.9927H35.2173V48.2684Z" fill="#E9856F" stroke="#1B1919" stroke-width="0.4"></path> <path d="M34.2103 47.3033H49.1631V48.8329H34.2103V47.3033Z" fill="#E9856F" stroke="#1B1919" stroke-width="0.4"></path> <path d="M34.2103 50.3658H49.1631V51.8954H34.2103V50.3658Z" fill="#E9856F" stroke="#1B1919" stroke-width="0.4"></path> <path d="M34.2103 53.4275H49.1631V54.9571H34.2103V53.4275Z" fill="#E9856F" stroke="#1B1919" stroke-width="0.4"></path> <path d="M38.4893 56.49H44.9268V58.0196H38.4893V56.49Z" fill="#E9856F" stroke="#1B1919" stroke-width="0.4"></path> <path d="M48.0726 48.0682V48.833H35.2171V48.0682C35.2171 45.1183 33.9774 42.2536 31.7535 40.2435L31.7426 40.2336L31.7303 40.2254L31.6209 40.1525C31.5435 40.0752 31.4546 39.9881 31.3278 39.9013L31.2994 39.8729L31.2995 39.8727L31.2925 39.8663C28.1044 36.9681 26.2823 32.8271 26.2823 28.5206C26.2823 20.0738 33.156 13.2 41.6029 13.2C50.0505 13.2 56.9655 20.0745 56.9655 28.5206C56.9655 32.8263 55.1439 36.9261 51.9543 39.8673L51.9541 39.8671L51.9484 39.8729L51.9065 39.9148C51.8739 39.9474 51.8308 39.9822 51.7761 40.0259L51.7719 40.0293C51.7225 40.0688 51.6627 40.1166 51.6128 40.1665L51.5318 40.2475C49.3546 42.2555 48.0726 45.0756 48.0726 48.0682ZM36.7474 47.1196L36.7623 47.3035H36.9467H46.4688H46.6533L46.6682 47.1196C46.9158 44.0654 48.3193 41.1764 50.5884 39.1136L50.5886 39.1138L50.5953 39.107L50.6662 39.0361C50.7378 38.9855 50.7964 38.9269 50.8424 38.8809L50.847 38.8763C50.9016 38.8217 50.9405 38.7837 50.9843 38.7545L50.9975 38.7457L51.0092 38.7349C53.8592 36.0975 55.5198 32.3955 55.5198 28.5626C55.5198 20.9433 49.3058 14.7718 41.7293 14.7715C34.0675 14.7293 27.8958 20.9439 27.8958 28.5206C27.8958 32.3919 29.5117 36.094 32.3624 38.6911C32.4115 38.7397 32.4697 38.7862 32.5179 38.8248L32.5221 38.8281C32.5768 38.8719 32.6199 38.9067 32.6525 38.9392L32.6665 38.9532L32.683 38.9642L32.7954 39.0392C35.1014 41.1859 36.5002 44.0713 36.7474 47.1196Z" fill="#E9856F" stroke="#1B1919" stroke-width="0.4"></path> <path d="M30.4351 28.5206C30.4351 22.3399 35.5042 17.3108 41.6868 17.3108C47.9109 17.3108 52.9385 22.3394 52.9385 28.5206C52.9385 34.7442 47.9105 39.7723 41.6868 39.7723C35.4632 39.7723 30.4351 34.7442 30.4351 28.5206Z" fill="black" stroke="#1B1919" stroke-width="0.4"></path> <path d="M40.8481 27.7557H44.8961L42.4793 35.4421L41.015 34.9762L42.7167 29.5875L42.7989 29.3273H42.526H38.5185L40.8957 21.6411L42.3591 22.1067L40.6574 27.4955L40.5752 27.7557H40.8481Z" fill="white" stroke="#1B1919" stroke-width="0.4"></path> </svg> 