<?xml version="1.0" encoding="UTF-8"?> <svg xmlns="http://www.w3.org/2000/svg" width="83" height="83" viewBox="0 0 83 83" fill="none"> <circle cx="41.5" cy="41.5" r="41" stroke="#E9856F"></circle> <circle cx="41.5" cy="41.5" r="37.2" stroke="white" stroke-opacity="0.45" stroke-width="0.6"></circle> <path d="M30.4127 47.0224V47.138L30.5128 47.1957L40.9212 53.1973L41.0211 53.2549L41.121 53.1973L51.5294 47.1957L51.6295 47.138V47.0224V35.0192V34.9036L51.5294 34.8459L41.121 28.8443L41.0211 28.7867L40.9212 28.8443L30.5128 34.8459L30.4127 34.9036V35.0192V47.0224ZM41.0211 55.0174L28.8821 47.9982V34.0014L41.0211 26.9822L53.1601 34.0014V47.9982L41.0211 55.0174Z" fill="#E9856F" stroke="black" stroke-width="0.4"></path> <path d="M30.1826 33.8656L40.9212 40.0609L41.0213 40.1187L41.1214 40.0608L51.8178 33.8659L52.5836 35.1978L41.0209 41.8812L29.4168 35.1975L30.1826 33.8656Z" fill="#E9856F" stroke="black" stroke-width="0.4"></path> <path d="M40.2559 41.2208H41.7865V53.9572H40.2559V41.2208Z" fill="#E9856F" stroke="black" stroke-width="0.4"></path> <path d="M26.5718 31.7779L29.8361 33.6657L29.0706 34.997L26.2226 33.3357L26.1759 33.3085H26.1218H22.7544V31.7779H26.5718Z" fill="#E9856F" stroke="black" stroke-width="0.4"></path> <path d="M15.2 28.8821H22.3545V36.0366H15.2V28.8821Z" fill="white" stroke="black" stroke-width="0.4"></path> <path d="M55.428 31.7779H59.2453V33.3085H55.9199H55.8665L55.8202 33.3351L52.9298 34.9981L52.1637 33.6657L55.428 31.7779Z" fill="#E9856F" stroke="black" stroke-width="0.4"></path> <path d="M59.6456 28.8821H66.8V36.0366H59.6456V28.8821Z" fill="white" stroke="black" stroke-width="0.4"></path> <path d="M52.1637 48.3345L52.9298 47.0021L55.8202 48.6651L55.8665 48.6917H55.9199H59.2453V50.2223H55.428L52.1637 48.3345Z" fill="#E9856F" stroke="black" stroke-width="0.4"></path> <path d="M59.6456 45.9637H66.8V53.1182H59.6456V45.9637Z" fill="white" stroke="black" stroke-width="0.4"></path> <path d="M26.5718 50.2223H22.7544V48.6917H26.1218H26.1759L26.2226 48.6645L29.0706 47.0032L29.8361 48.3345L26.5718 50.2223Z" fill="#E9856F" stroke="black" stroke-width="0.4"></path> <path d="M15.2 45.9637H22.3545V53.1182H15.2V45.9637Z" fill="white" stroke="black" stroke-width="0.4"></path> <path d="M40.2554 22.7544H41.786V27.6845H40.2554V22.7544Z" fill="#E9856F" stroke="black" stroke-width="0.4"></path> <path d="M37.4017 15.2H44.5561V22.3545H37.4017V15.2Z" fill="white" stroke="black" stroke-width="0.4"></path> <path d="M40.2554 54.3155H41.786V59.2456H40.2554V54.3155Z" fill="#E9856F" stroke="black" stroke-width="0.4"></path> <path d="M37.4017 59.6456H44.5561V66.8H37.4017V59.6456Z" fill="white" stroke="black" stroke-width="0.4"></path> <path d="M22.7547 20.8658H24.2853V22.3964H22.7547V20.8658Z" fill="#E9856F" stroke="black" stroke-width="0.4"></path> <path d="M57.7151 20.8658H59.2457V22.3964H57.7151V20.8658Z" fill="#E9856F" stroke="black" stroke-width="0.4"></path> <path d="M22.7547 59.6453H24.2853V61.1759H22.7547V59.6453Z" fill="#E9856F" stroke="black" stroke-width="0.4"></path> <path d="M57.7151 59.6453H59.2457V61.1759H57.7151V59.6453Z" fill="#E9856F" stroke="black" stroke-width="0.4"></path> </svg> 