<?xml version="1.0" encoding="UTF-8"?> <svg xmlns="http://www.w3.org/2000/svg" width="83" height="83" viewBox="0 0 83 83" fill="none"> <circle cx="41.5" cy="41.5" r="41" stroke="#E9856F"></circle> <circle cx="41.5" cy="41.5" r="37.2" stroke="white" stroke-opacity="0.45" stroke-width="0.6"></circle> <path d="M55.1012 45.3488C61.0905 46.875 65.5753 52.2698 65.6657 58.7589H56.6837V58.0165C56.6837 49.8827 52.1195 42.5973 45.1464 38.9541C47.8084 36.3485 49.3901 32.7334 49.3901 28.8419C49.3901 28.6323 49.3903 28.4047 49.4138 28.1756C50.1385 27.9614 50.9335 27.8536 51.7305 27.8536C56.3323 27.8536 60.0535 31.5748 60.0535 36.1765C60.0535 39.6152 57.9346 42.5771 54.932 43.859C54.6615 43.9683 54.4398 44.2403 54.4398 44.5765C54.4398 44.9013 54.6468 45.1662 54.9047 45.2823C54.9588 45.3208 55.016 45.3351 55.0462 45.3411C55.0679 45.3455 55.0871 45.3477 55.1012 45.3488Z" fill="#F8FEFF" stroke="black" stroke-width="0.4"></path> <path d="M54.1532 58.0576V58.8H16.2V58.0576C16.2 49.5013 21.8769 42.0408 30.0671 39.7703L30.5807 39.6279L30.1002 39.3973C26.0719 37.4637 23.4937 33.3951 23.4937 28.8829C23.4937 22.4373 28.7309 17.2 35.1766 17.2C41.6222 17.2 46.8595 22.4373 46.8595 28.8829C46.8595 33.3951 44.2813 37.4637 40.253 39.3973L39.7725 39.6279L40.2861 39.7703C48.4762 42.0408 54.1532 49.5013 54.1532 58.0576ZM17.7261 57.1054L17.7159 57.3151H17.9259H52.4683H52.6795L52.668 57.1043C52.2536 49.4799 46.9511 42.9743 39.4534 41.0655L39.4392 41.0608L39.3835 41.0422L39.2145 40.9859L39.2145 40.9858L39.2109 40.9847C38.6376 40.8056 38.2039 40.2265 38.2039 39.6185C38.2039 39.0471 38.5623 38.5013 39.1093 38.2444C42.9104 36.6553 45.3746 32.9367 45.3746 28.842C45.3746 23.1993 40.7772 18.6439 35.1766 18.6439C29.5339 18.6439 24.9785 23.2413 24.9785 28.842C24.9785 32.9796 27.4449 36.658 31.2478 38.246L31.2506 38.2472C31.7859 38.4613 32.1493 39 32.1493 39.6185C32.1493 40.2701 31.7544 40.8046 31.1455 40.9837L31.1284 40.9888L31.1125 40.9967C31.0811 41.0124 31.0377 41.03 30.9986 41.0447C30.9925 41.047 30.9867 41.0491 30.9812 41.0511C30.9696 41.0554 30.9594 41.059 30.9515 41.0617L30.9406 41.0655C23.443 42.9333 18.099 49.4392 17.7261 57.1054Z" fill="#E9856F" stroke="black" stroke-width="0.4"></path> </svg> 