<?xml version="1.0" encoding="UTF-8"?> <svg xmlns="http://www.w3.org/2000/svg" width="83" height="83" viewBox="0 0 83 83" fill="none"> <circle cx="41.5" cy="41.5" r="41" stroke="#E9856F"></circle> <circle cx="41.5" cy="41.5" r="37.2" stroke="white" stroke-opacity="0.45" stroke-width="0.6"></circle> <path d="M23.5049 46.2513H27.3126L28.1588 56.7358L28.175 56.9374L28.3764 56.9189L36.6768 56.1551L37.8024 65.1834L36.3992 65.3662L35.4842 57.8679L35.4607 57.6753L35.2676 57.6929L26.8976 58.4561L26.0526 47.8331L26.038 47.6489H25.8532H21.2802L25.3379 35.8387L25.3487 35.8071V35.7737V33.8979C25.3487 24.1218 33.2824 16.2 43.0744 16.2C52.8275 16.2 60.8 24.1221 60.8 33.8979C60.8 35.87 60.4902 37.8007 59.8335 39.6134L59.8332 39.6133L59.8302 39.6232L56.112 51.8157L56.0984 51.8605L56.106 51.9068L58.3044 65.1539L56.8981 65.3981L54.6296 51.7701L58.4507 39.1958C59.0443 37.4559 59.3213 35.7156 59.3213 33.8979C59.3213 24.9164 51.9908 17.5976 42.9961 17.5976C34.0014 17.5976 26.6708 24.9164 26.6708 33.8979V36.0535L23.3154 45.9873L23.2262 46.2513H23.5049Z" fill="#E9856F" stroke="#1B1919" stroke-width="0.4"></path> <path d="M50.6257 32.7522L50.6446 32.8938L50.7848 32.9218L52.7766 33.3196V34.4706L50.7917 34.7949L50.655 34.8172L50.6278 34.953C50.5125 35.5287 50.3587 36.0664 50.166 36.6053L50.1202 36.7331L50.2222 36.8228L51.743 38.1605L51.1632 39.166L49.2443 38.5153L49.1132 38.4708L49.0254 38.5779C48.677 39.0032 48.2975 39.4186 47.8469 39.7561L47.7307 39.8431L47.7775 39.9805L48.429 41.8959L47.4216 42.475L46.0816 40.9562L45.992 40.8546L45.8644 40.9001C45.3243 41.0927 44.7907 41.2444 44.2222 41.3201L44.0806 41.339L44.0525 41.4791L43.6542 43.4677H42.4947L42.0964 41.4791L42.0683 41.339L41.9267 41.3201C41.3582 41.2444 40.8246 41.0927 40.2845 40.9001L40.1569 40.8546L40.0673 40.9562L38.7272 42.475L37.7199 41.8959L38.3714 39.9805L38.4161 39.8491L38.3086 39.7613C37.8827 39.4133 37.4666 39.0345 37.1287 38.5846L37.0417 38.4688L36.9045 38.5153L34.9856 39.166L34.4058 38.1605L35.9267 36.8228L36.0286 36.7331L35.9829 36.6053C35.79 36.066 35.6381 35.5333 35.5623 34.9658L35.5434 34.8241L35.4032 34.7961L33.4114 34.3984V33.2414L35.4032 32.8437L35.542 32.816L35.5621 32.6759C35.6378 32.1467 35.7898 31.6134 35.9829 31.0736L36.0286 30.9458L35.9267 30.8561L34.4058 29.5184L34.9856 28.5129L36.9045 29.1636L37.0357 29.2081L37.1235 29.1009C37.4719 28.6757 37.8513 28.2603 38.302 27.9228L38.4182 27.8358L38.3714 27.6983L37.7199 25.783L38.7272 25.2039L40.0673 26.7227L40.1569 26.8243L40.2845 26.7788C40.8246 26.5862 41.3582 26.4345 41.9267 26.3588L42.0678 26.34L42.0962 26.2005L42.4941 24.2503H43.6542L44.0525 26.2389L44.0806 26.379L44.2222 26.3979C44.7907 26.4735 45.3243 26.6253 45.8644 26.8179L45.992 26.8633L46.0816 26.7618L47.4216 25.243L48.429 25.822L47.7775 27.7374L47.7327 27.8689L47.8403 27.9567C48.2662 28.3046 48.6823 28.6835 49.0202 29.1334L49.1067 29.2485L49.2433 29.203L51.2019 28.5512L51.7822 29.5574L50.2613 30.8952L50.1594 30.9848L50.2051 31.1127C50.398 31.6519 50.5499 32.1847 50.6257 32.7522ZM47.4231 33.8624H47.4232V33.859C47.4232 31.4414 45.4534 29.5167 43.0744 29.5167C40.6918 29.5167 38.7649 31.4842 38.7649 33.859C38.7649 36.2741 40.693 38.2013 43.0744 38.2013C45.4565 38.2013 47.3822 36.2742 47.4231 33.8624Z" fill="#FFF2E9" stroke="#1B1919" stroke-width="0.4"></path> <path d="M43.0743 38.7001C40.4056 38.7001 38.2254 36.5228 38.2254 33.859C38.2254 31.1952 40.4056 29.0179 43.0743 29.0179C45.7425 29.0179 47.9225 31.1944 47.9232 33.8576C47.8849 36.5635 45.741 38.7001 43.0743 38.7001ZM43.0743 30.4546C41.2029 30.4546 39.6649 31.9897 39.6649 33.859C39.6649 35.7251 41.1998 37.3025 43.0743 37.3025C44.9473 37.3025 46.4837 35.7658 46.4837 33.859C46.4837 31.9897 44.9457 30.4546 43.0743 30.4546Z" fill="#E9856F" stroke="#1B1919" stroke-width="0.4"></path> <path d="M42.0051 46.2746L41.9441 47.6745C41.4496 47.637 40.9396 47.573 40.4512 47.4643L40.7261 46.0924C41.1522 46.1764 41.5786 46.2371 42.0051 46.2746ZM44.235 47.6751L44.113 46.2738C44.5366 46.2363 44.9601 46.1758 45.3834 46.0924L45.6588 47.467C45.2024 47.5745 44.722 47.6379 44.235 47.6751ZM38.7133 45.5437L38.2533 46.8908C37.7998 46.7271 37.3439 46.5173 36.8847 46.2792L37.5244 45.0322C37.924 45.2336 38.3221 45.3927 38.7133 45.5437ZM47.8952 46.8557L47.4364 45.5425C47.8333 45.3857 48.2459 45.2084 48.622 45.0278L49.2617 46.2748C48.826 46.4882 48.3713 46.6937 47.8952 46.8557ZM35.7155 43.9492L34.9223 45.1066C34.5308 44.8232 34.14 44.4963 33.7683 44.1624L34.7077 43.1336C35.0266 43.4312 35.3812 43.7036 35.7155 43.9492ZM51.2234 45.0696L50.4005 43.9133C50.7573 43.6637 51.0914 43.3911 51.4025 43.0953L52.3463 44.1289C52.0018 44.4601 51.6148 44.7862 51.2234 45.0696ZM31.3309 41.2732L32.5181 40.5437C32.7454 40.9087 33.0121 41.2686 33.2818 41.6055L32.1884 42.485C31.8807 42.0843 31.5839 41.6883 31.3309 41.2732ZM53.9318 42.4545L52.8268 41.5657C53.0956 41.2225 53.3427 40.86 53.5837 40.5L54.78 41.235C54.5274 41.6639 54.2512 42.0821 53.9318 42.4545ZM31.5856 38.7139L30.2988 39.2645C30.0984 38.8094 29.9433 38.3509 29.8145 37.8688L31.1573 37.5032C31.2862 37.9239 31.4355 38.3227 31.5856 38.7139ZM54.9896 37.4636L56.3316 37.8291C56.2026 38.2919 56.048 38.7692 55.8494 39.2252L54.5717 38.6785C54.7417 38.2748 54.8701 37.855 54.9896 37.4636ZM30.6255 34.0981C30.6327 34.528 30.663 34.9755 30.7165 35.406L29.3157 35.5884C29.2612 35.1008 29.2309 34.6104 29.2246 34.0981H30.6255ZM55.5238 34.0199H56.9244C56.9193 34.5507 56.8889 35.079 56.8333 35.5841L55.4318 35.3712C55.4875 34.93 55.5181 34.486 55.5238 34.0199ZM31.0079 30.7556C30.8932 31.181 30.8019 31.6067 30.7338 32.0326L29.3653 31.8504C29.4333 31.3616 29.5279 30.8754 29.6677 30.3907L31.0079 30.7556ZM56.7437 31.7376L55.375 31.9502C55.3068 31.5244 55.2153 31.0988 55.1005 30.6734L56.4338 30.2801C56.5562 30.7719 56.6714 31.2558 56.7437 31.7376ZM31.7024 28.792L30.4189 28.2428C30.6116 27.792 30.8477 27.3414 31.0913 26.9083L32.2764 27.6365C32.069 28.0099 31.8831 28.4024 31.7024 28.792ZM54.4054 28.7103C54.2251 28.3223 54.0353 27.9283 53.803 27.5528L54.987 26.8253C55.2483 27.25 55.4675 27.6786 55.6835 28.1331L54.4054 28.7103ZM34.406 24.9741C34.0773 25.2634 33.7739 25.591 33.4964 25.9204L32.3947 25.0343C32.7058 24.6451 33.0409 24.2802 33.4001 23.9393L34.406 24.9741ZM52.5733 25.8428C52.2906 25.5127 51.9882 25.2047 51.6875 24.9037L52.6357 23.8654C52.9939 24.2053 53.3318 24.5703 53.669 24.9615L52.5733 25.8428ZM37.0048 23.0016C36.668 23.2065 36.3436 23.4039 36.0375 23.6155L35.2144 22.4589C35.618 22.1849 36.044 21.9147 36.4927 21.6664L37.1365 22.9214C37.0924 22.9483 37.0485 22.975 37.0048 23.0016ZM50.8585 22.4224L50.0658 23.5792C49.7062 23.3408 49.3359 23.1025 48.9426 22.9042L49.5799 21.6618C50.0081 21.8852 50.4531 22.1512 50.8585 22.4224ZM38.5913 20.8068C39.0498 20.6382 39.5322 20.514 40.021 20.4157L40.2933 21.7754C39.8677 21.8507 39.4466 21.9686 39.0472 22.1115L38.5913 20.8068ZM47.4759 20.7766L47.0232 22.0724C46.6237 21.9296 46.2027 21.8116 45.777 21.7363L46.0492 20.3777C46.5301 20.4799 47.011 20.6247 47.4759 20.7766ZM43.6712 21.4825C43.2361 21.4423 42.8015 21.4641 42.3606 21.4928L42.2694 20.0965C42.7606 20.0727 43.2706 20.0727 43.7618 20.0965L43.6712 21.4825Z" fill="#E9856F" stroke="#1B1919" stroke-width="0.4"></path> </svg> 