<?xml version="1.0" encoding="UTF-8"?> <svg xmlns="http://www.w3.org/2000/svg" width="83" height="83" viewBox="0 0 83 83" fill="none"> <circle cx="41.5" cy="41.5" r="41" stroke="#E9856F"></circle> <circle cx="41.5" cy="41.5" r="37.2" stroke="white" stroke-opacity="0.45" stroke-width="0.6"></circle> <path d="M36.3574 70.3379L36.653 68.6747C37.1791 68.7783 37.7308 68.8521 38.2846 68.8964L38.1001 70.5936C37.5042 70.5188 36.9164 70.4418 36.3574 70.3379ZM34.2764 68.1326L33.8331 69.7948C33.7772 69.78 33.721 69.7652 33.6648 69.7504C33.1515 69.615 32.6279 69.477 32.1244 69.3169L32.6804 67.686C33.201 67.8645 33.7251 68.0134 34.2764 68.1326ZM29.748 68.4062C29.2013 68.1787 28.6808 67.9232 28.158 67.6624L28.9348 66.1458C29.4222 66.3974 29.9317 66.6189 30.4161 66.8102L29.748 68.4062ZM26.7514 64.9308L25.8925 66.4244C25.3824 66.1228 24.8986 65.7931 24.4125 65.4571L25.3789 64.0447C25.6036 64.1924 25.8339 64.3398 26.063 64.4864L26.0639 64.4869C26.296 64.6355 26.5269 64.7833 26.7514 64.9308ZM22.1346 61.5344C22.5395 61.9019 22.9521 62.2708 23.3929 62.6137L22.322 63.9431C21.8746 63.5699 21.4297 63.1959 20.9853 62.7949L22.1346 61.5344ZM20.4666 59.8195L19.2055 60.9694C18.8045 60.525 18.4305 60.0801 18.0574 59.6327L19.3922 58.5574C19.7306 58.9691 20.0968 59.4059 20.4666 59.8195ZM17.9113 56.5791L16.4955 57.585C16.1595 57.0989 15.8299 56.615 15.5284 56.1047L17.0209 55.2092C17.3183 55.6859 17.6155 56.1349 17.9113 56.5791ZM15.8181 53.0609L14.2927 53.8422C14.035 53.3197 13.78 52.773 13.5523 52.2509L15.1511 51.5816C15.3738 52.0945 15.5963 52.58 15.8181 53.0609ZM12.6835 49.8346C12.4962 49.2702 12.3175 48.7122 12.1947 48.1286L13.8809 47.7164C13.9546 47.9777 14.0284 48.2453 14.1024 48.5135L14.1026 48.5141C14.1764 48.7817 14.2504 49.05 14.3245 49.3125L12.6835 49.8346ZM13.2935 45.345L11.6186 45.6428C11.5137 45.0551 11.4362 44.4915 11.3612 43.9003L13.0703 43.7145C13.1075 43.9902 13.1446 44.2596 13.1818 44.5287L13.1818 44.5288C13.219 44.7991 13.2563 45.069 13.2935 45.345Z" fill="#E9856F" stroke="black" stroke-width="0.4"></path> <path d="M40.7197 69.0948H42.4249V70.8H40.7197V69.0948Z" fill="#E9856F" stroke="black" stroke-width="0.4"></path> <path d="M11.2 39.5293H12.9053V41.2346H11.2V39.5293Z" fill="#E9856F" stroke="black" stroke-width="0.4"></path> <path d="M41.5264 56.4634C49.6683 56.4634 56.3952 50.3912 57.4014 42.5503H66.5277C65.4712 55.4333 54.6664 65.5371 41.5264 65.5371C35.3841 65.5371 29.728 63.2791 25.3453 59.5923L31.7952 53.1424C34.5049 55.209 37.8807 56.4634 41.5264 56.4634Z" fill="white" stroke="black" stroke-width="0.4"></path> <path d="M22.4071 56.6101C18.6776 52.2293 16.4632 46.6172 16.4632 40.4281C16.4632 27.2882 26.567 16.4834 39.45 15.4268V24.5542C31.6104 25.6043 25.5369 32.285 25.5369 40.4281C25.5369 44.0738 26.7913 47.4496 28.8579 50.1594L22.4071 56.6101Z" fill="white" stroke="black" stroke-width="0.4"></path> <path d="M45.4432 24.8946L55.6158 14.722C56.1357 14.9871 56.6522 15.2819 57.1406 15.6064L47.288 25.459C46.6923 25.2411 46.0695 25.053 45.4432 24.8946Z" fill="#E9856F" stroke="black" stroke-width="0.4"></path> <path d="M52.0572 13.1088C52.6494 13.3325 53.2109 13.5571 53.7674 13.8077L43.6486 23.9266V21.5174L52.0572 13.1088Z" fill="#E9856F" stroke="black" stroke-width="0.4"></path> <path d="M62.8861 20.3416L53.4779 29.7498C53.0784 29.3144 52.6935 28.9012 52.2556 28.5171L61.6289 19.1438C61.8448 19.3317 62.0492 19.5276 62.2563 19.73C62.3067 19.7792 62.3573 19.8289 62.4083 19.879C62.5629 20.0308 62.7209 20.1859 62.8861 20.3416Z" fill="#E9856F" stroke="black" stroke-width="0.4"></path> <path d="M49.1845 26.3716L58.8032 16.7972C59.2813 17.1322 59.7306 17.4691 60.1764 17.833L50.6605 27.3044C50.2076 26.9738 49.7004 26.6475 49.1845 26.3716Z" fill="#E9856F" stroke="black" stroke-width="0.4"></path> <path d="M43.6486 11.2111C44.3493 11.2518 45.027 11.32 45.7249 11.4157L43.6486 13.492V11.2111Z" fill="#E9856F" stroke="black" stroke-width="0.4"></path> <path d="M43.6486 16.3001L48.0877 11.8611C48.7166 12.0124 49.3463 12.1927 49.9796 12.3783L43.6486 18.7093V16.3001Z" fill="#E9856F" stroke="black" stroke-width="0.4"></path> <path d="M68.4623 38.3516L70.5386 36.2753C70.6343 36.9731 70.7025 37.6509 70.7432 38.3516H68.4623Z" fill="#E9856F" stroke="black" stroke-width="0.4"></path> <path d="M65.2026 23.1967L55.6198 32.7795C55.3225 32.2684 55.0211 31.7826 54.6916 31.2985L64.1667 21.8234C64.5306 22.2693 64.8676 22.7186 65.2026 23.1967Z" fill="#E9856F" stroke="black" stroke-width="0.4"></path> <path d="M63.245 38.3516L69.5901 32.0066C69.7824 32.5833 69.9282 33.206 70.0718 33.8193C70.079 33.8503 70.0863 33.8813 70.0936 33.9123L65.6542 38.3516H63.245Z" fill="#E9856F" stroke="black" stroke-width="0.4"></path> <path d="M58.0734 38.3516L68.1923 28.2327C68.4429 28.7893 68.6675 29.3508 68.8912 29.943L60.4826 38.3516H58.0734Z" fill="#E9856F" stroke="black" stroke-width="0.4"></path> <path d="M67.2267 26.3899L57.0598 36.5568C56.9014 35.9306 56.7133 35.3078 56.4954 34.7121L66.3394 24.8681C66.6345 25.356 66.93 25.8708 67.2267 26.3899Z" fill="#E9856F" stroke="black" stroke-width="0.4"></path> </svg> 