<?xml version="1.0" encoding="UTF-8"?> <svg xmlns="http://www.w3.org/2000/svg" width="83" height="83" viewBox="0 0 83 83" fill="none"> <circle cx="41.5" cy="41.5" r="41" stroke="#E9856F"></circle> <circle cx="41.5" cy="41.5" r="37.2" stroke="white" stroke-opacity="0.45" stroke-width="0.6"></circle> <path d="M23.2447 41.8748L23.1862 41.9752L23.2444 42.0758C27.0096 48.5793 34.003 52.9325 42.024 52.9325C50.045 52.9325 57.0384 48.5793 60.8036 42.0758L60.8616 41.9756L60.8036 41.8754C57.0384 35.3719 50.045 31.0187 42.024 31.0187C34.0023 31.0187 27.0095 35.4209 23.2447 41.8748ZM18.9659 42.024C18.9659 29.294 29.294 18.9659 42.024 18.9659C54.7531 18.9659 65.0337 29.2931 65.0822 42.024C65.0822 54.754 54.754 65.0822 42.024 65.0822C29.294 65.0822 18.9659 54.754 18.9659 42.024Z" fill="#1B1919" stroke="black" stroke-width="0.4"></path> <path d="M22.6216 41.4952L22.6221 41.4943C26.6079 34.5791 34.0521 30.3045 42.0244 30.3045C49.9961 30.3045 57.3926 34.5786 61.4273 41.4952L61.7076 41.9758L61.4273 42.4565C57.3927 49.3728 49.9479 53.6472 42.0244 53.6472C34.0527 53.6472 26.6562 49.3731 22.6216 42.4565L22.3412 41.9758L22.6216 41.4952ZM24.556 41.9192L24.4911 42.0243L24.556 42.1294C28.275 48.1483 34.9291 51.8667 42.0244 51.8667C49.1204 51.8667 55.7253 48.1477 59.4922 42.1304L59.5586 42.0243L59.4922 41.9182C55.7253 35.9009 49.1204 32.1819 42.0244 32.1819C34.9291 32.1819 28.275 35.9003 24.556 41.9192Z" fill="#E9856F" stroke="black" stroke-width="0.4"></path> <path d="M49.4803 42.0241C49.4803 46.1292 46.1295 49.4799 42.0245 49.4799C37.9194 49.4799 34.5687 46.1292 34.5687 42.0241C34.5687 37.9165 37.8734 34.5198 42.0245 34.5198C46.1287 34.5198 49.4803 37.8697 49.4803 42.0241Z" fill="white" stroke="black" stroke-width="0.4"></path> <path d="M42.0245 45.2648C40.2452 45.2648 38.7842 43.8038 38.7842 42.0245C38.7842 40.2452 40.2452 38.7842 42.0245 38.7842C43.8038 38.7842 45.2648 40.2452 45.2648 42.0245C45.2648 43.8038 43.8038 45.2648 42.0245 45.2648ZM42.0245 40.6131C41.2357 40.6131 40.6131 41.2357 40.6131 42.0245C40.6131 42.8133 41.2357 43.4359 42.0245 43.4359C42.8133 43.4359 43.4359 42.8133 43.4359 42.0245C43.4359 41.2305 42.7597 40.6131 42.0245 40.6131Z" fill="#E9856F" stroke="black" stroke-width="0.4"></path> <path d="M15.5263 36.9047C15.414 37.4942 15.3312 38.0536 15.2519 38.6064L13.4188 38.4072C13.42 38.3983 13.4212 38.3895 13.4223 38.3806C13.5011 37.7859 13.5823 37.1724 13.6919 36.5857L15.5263 36.9047Z" fill="#E9856F" stroke="black" stroke-width="0.4"></path> <path d="M16.1894 34.207C16.1633 34.2935 16.1374 34.3791 16.1117 34.4637L14.3598 33.9859C14.5252 33.3919 14.7235 32.7977 14.9546 32.2031L16.6229 32.8386C16.4627 33.303 16.3228 33.7658 16.1894 34.207Z" fill="#E9856F" stroke="black" stroke-width="0.4"></path> <path d="M18.348 29.0156C18.0774 29.4996 17.8365 30.0108 17.6015 30.5189L15.9367 29.7657L16.3525 28.9341L16.7664 28.1062L18.348 29.0156Z" fill="#E9856F" stroke="black" stroke-width="0.4"></path> <path d="M20.7132 25.4827C20.358 25.9244 20.0056 26.3954 19.6818 26.8699L18.1727 25.8374C18.5327 25.3183 18.8917 24.8075 19.2794 24.3277L20.7132 25.4827Z" fill="#E9856F" stroke="black" stroke-width="0.4"></path> <path d="M22.2913 21.0363L23.5228 22.387C23.1278 22.7505 22.7332 23.1454 22.3392 23.5716L20.9933 22.3445C21.1255 22.2104 21.2566 22.0753 21.387 21.9409C21.6904 21.6284 21.99 21.3196 22.2913 21.0363Z" fill="#E9856F" stroke="black" stroke-width="0.4"></path> <path d="M25.7944 20.4459C25.6763 20.5367 25.5579 20.6278 25.4386 20.7185L24.2794 19.2794C24.7592 18.8917 25.2699 18.5327 25.7891 18.1727L26.822 19.6824C26.4716 19.9249 26.1341 20.1845 25.7944 20.4459Z" fill="#E9856F" stroke="black" stroke-width="0.4"></path> <path d="M30.4681 17.6452C29.9847 17.8592 29.4751 18.129 28.9695 18.4008L28.0524 16.8059C28.6062 16.4963 29.1596 16.2195 29.7127 15.9754L30.4681 17.6452Z" fill="#E9856F" stroke="black" stroke-width="0.4"></path> <path d="M33.9767 16.2398C33.5843 16.3646 33.2027 16.4859 32.8386 16.6189L32.2054 14.9173L32.2092 14.916L32.2135 14.9146L32.2177 14.9132L32.222 14.9117L32.2262 14.9103L32.2305 14.9089L32.2348 14.9075L32.239 14.9061L32.2433 14.9046L32.2475 14.9032L32.2518 14.9018L32.2561 14.9004L32.2603 14.899L32.2646 14.8975L32.2688 14.8961L32.2731 14.8947L32.2773 14.8933L32.2816 14.8919L32.2859 14.8904L32.2901 14.889L32.2944 14.8876L32.2986 14.8862L32.3029 14.8848L32.3072 14.8833L32.3114 14.8819L32.3157 14.8805L32.3199 14.8791L32.3242 14.8777L32.3284 14.8762L32.3327 14.8748L32.337 14.8734L32.3412 14.872L32.3455 14.8706L32.3497 14.8692L32.354 14.8677L32.3583 14.8663L32.3625 14.8649L32.3668 14.8635L32.371 14.8621L32.3753 14.8606L32.3796 14.8592L32.3838 14.8578L32.3881 14.8564L32.3923 14.855L32.3966 14.8535L32.4008 14.8521L32.4051 14.8507L32.4094 14.8493L32.4136 14.8479L32.4179 14.8464L32.4221 14.845L32.4264 14.8436L32.4307 14.8422L32.4349 14.8408L32.4392 14.8393L32.4434 14.8379L32.4477 14.8365L32.452 14.8351L32.4562 14.8337L32.4605 14.8322L32.4647 14.8308L32.469 14.8294L32.4732 14.828L32.4775 14.8266L32.4818 14.8251L32.486 14.8237L32.4903 14.8223L32.4945 14.8209L32.4988 14.8195L32.5031 14.818L32.5073 14.8166L32.5116 14.8152L32.5158 14.8138L32.5201 14.8124L32.5243 14.8109L32.5286 14.8095L32.5329 14.8081L32.5371 14.8067L32.5414 14.8053L32.5456 14.8039L32.5499 14.8024L32.5542 14.801L32.5584 14.7996L32.5627 14.7982L32.5669 14.7968L32.5712 14.7953L32.5755 14.7939L32.5797 14.7925L32.584 14.7911L32.5882 14.7897L32.5925 14.7882L32.5967 14.7868L32.601 14.7854L32.6053 14.784L32.6095 14.7826L32.6138 14.7811L32.618 14.7797L32.6223 14.7783L32.6266 14.7769L32.6308 14.7755L32.6351 14.774L32.6393 14.7726L32.6436 14.7712L32.6479 14.7698L32.6521 14.7684L32.6564 14.7669L32.6606 14.7655L32.6649 14.7641L32.6691 14.7627L32.6734 14.7613L32.6777 14.7598L32.6819 14.7584L32.6862 14.757L32.6904 14.7556L32.6947 14.7542L32.699 14.7527L32.7032 14.7513L32.7075 14.7499L32.7117 14.7485L32.716 14.7471L32.7202 14.7456L32.7245 14.7442L32.7288 14.7428L32.733 14.7414L32.7373 14.74L32.7415 14.7386L32.7458 14.7371L32.7501 14.7357L32.7543 14.7343L32.7586 14.7329L32.7628 14.7315L32.7671 14.73L32.7714 14.7286L32.7756 14.7272L32.7799 14.7258L32.7841 14.7244L32.7884 14.7229L32.7926 14.7215L32.7969 14.7201L32.8012 14.7187L32.8054 14.7173L32.8097 14.7158L32.8139 14.7144L32.8182 14.713L32.8225 14.7116L32.8267 14.7102L32.831 14.7087L32.8352 14.7073L32.8395 14.7059L32.8438 14.7045L32.848 14.7031L32.8523 14.7016L32.8565 14.7002L32.8608 14.6988L32.865 14.6974L32.8693 14.696L32.8736 14.6945L32.8778 14.6931L32.8821 14.6917L32.8863 14.6903L32.8906 14.6889L32.8949 14.6874L32.8991 14.686L32.9034 14.6846L32.9076 14.6832L32.9119 14.6818L32.9161 14.6803L32.9204 14.6789L32.9247 14.6775L32.9289 14.6761L32.9332 14.6747L32.9374 14.6733L32.9417 14.6718L32.946 14.6704L32.9502 14.669L32.9545 14.6676L32.9587 14.6662L32.963 14.6647L32.9673 14.6633L32.9715 14.6619L32.9758 14.6605L32.98 14.6591L32.9843 14.6576L32.9885 14.6562L32.9928 14.6548L32.9971 14.6534L33.0013 14.652L33.0056 14.6505L33.0098 14.6491L33.0141 14.6477L33.0184 14.6463L33.0226 14.6449L33.0269 14.6434L33.0311 14.642L33.0354 14.6406L33.0397 14.6392L33.0439 14.6378L33.0482 14.6363L33.0524 14.6349L33.0567 14.6335L33.0609 14.6321L33.0652 14.6307L33.0695 14.6292L33.0737 14.6278L33.078 14.6264L33.0822 14.625L33.0865 14.6236L33.0908 14.6221L33.095 14.6207L33.0993 14.6193L33.1035 14.6179L33.1078 14.6165L33.112 14.615L33.1163 14.6136L33.1206 14.6122L33.1248 14.6108L33.1291 14.6094L33.1333 14.608L33.1376 14.6065L33.1419 14.6051L33.1461 14.6037L33.1504 14.6023L33.1546 14.6009L33.1589 14.5994L33.1632 14.598L33.1674 14.5966L33.1717 14.5952L33.1759 14.5938L33.1802 14.5923L33.1844 14.5909L33.1887 14.5895L33.193 14.5881L33.1972 14.5867L33.2015 14.5852L33.2057 14.5838L33.21 14.5824L33.2143 14.581L33.2185 14.5796L33.2228 14.5781L33.227 14.5767L33.2313 14.5753L33.2356 14.5739L33.2398 14.5725L33.2441 14.571L33.2483 14.5696L33.2526 14.5682L33.2568 14.5668L33.2611 14.5654L33.2654 14.5639L33.2696 14.5625L33.2739 14.5611L33.2781 14.5597L33.2824 14.5583L33.2867 14.5568L33.2909 14.5554L33.2952 14.554L33.2994 14.5526L33.3037 14.5512L33.3079 14.5497L33.3122 14.5483L33.3165 14.5469L33.3207 14.5455L33.325 14.5441L33.3292 14.5427L33.3335 14.5412L33.3378 14.5398L33.342 14.5384L33.3463 14.537L33.3505 14.5356L33.3548 14.5341L33.3591 14.5327L33.3633 14.5313L33.3676 14.5299L33.3718 14.5285L33.3761 14.527L33.3803 14.5256L33.3846 14.5242L33.3889 14.5228L33.3931 14.5214L33.3974 14.5199L33.4016 14.5185L33.4059 14.5171L33.4102 14.5157L33.4144 14.5143L33.4187 14.5128L33.4229 14.5114L33.4272 14.51L33.4315 14.5086L33.4357 14.5072L33.44 14.5057L33.4442 14.5043L33.4485 14.5029L33.4527 14.5015L33.457 14.5001L33.4613 14.4986L33.4655 14.4972L33.4698 14.4958L33.474 14.4944L33.4783 14.493L33.4826 14.4915L33.4868 14.4901L33.4911 14.4887L33.4953 14.4873L33.4996 14.4859L33.5038 14.4844L33.5081 14.483L33.5124 14.4816L33.5166 14.4802L33.5209 14.4788L33.5251 14.4774L33.5294 14.4759L33.5337 14.4745L33.5379 14.4731L33.5422 14.4717L33.5464 14.4703L33.5507 14.4688L33.555 14.4674L33.5592 14.466L33.5635 14.4646L33.5677 14.4632L33.572 14.4617L33.5762 14.4603L33.5805 14.4589L33.5848 14.4575L33.589 14.4561L33.5933 14.4546L33.5975 14.4532L33.6018 14.4518L33.6061 14.4504L33.6103 14.449L33.6146 14.4475L33.6188 14.4461L33.6231 14.4447L33.6273 14.4433L33.6316 14.4419L33.6359 14.4404L33.6401 14.439L33.6444 14.4376L33.6486 14.4362L33.6529 14.4348L33.6572 14.4333L33.6614 14.4319L33.6657 14.4305L33.6699 14.4291L33.6742 14.4277L33.6785 14.4262L33.6827 14.4248L33.687 14.4234L33.6912 14.422L33.6955 14.4206L33.6997 14.4191L33.704 14.4177L33.7083 14.4163L33.7125 14.4149L33.7168 14.4135L33.721 14.4121L33.7253 14.4106L33.7296 14.4092L33.7338 14.4078L33.7381 14.4064L33.7423 14.405L33.7466 14.4035L33.7509 14.4021L33.7551 14.4007L33.7594 14.3993L33.7636 14.3979L33.7679 14.3964L33.7721 14.395L33.7764 14.3936L33.7807 14.3922L33.7849 14.3908L33.7892 14.3893L33.7934 14.3879L33.7977 14.3865L33.802 14.3851L33.8062 14.3837L33.8105 14.3822L33.8147 14.3808L33.819 14.3794L33.8232 14.378L33.8275 14.3766L33.8318 14.3751L33.836 14.3737L33.8403 14.3723L33.8445 14.3709L33.8488 14.3695L33.8531 14.368L33.8573 14.3666L33.8616 14.3652L33.8658 14.3638L33.8701 14.3624L33.8744 14.3609L33.8786 14.3595L33.8829 14.3581L33.8871 14.3567L33.8914 14.3553L33.8956 14.3538L33.8999 14.3524L33.9042 14.351L33.9084 14.3496L33.9127 14.3482L33.9169 14.3468L33.9212 14.3453L33.9255 14.3439L33.9297 14.3425L33.934 14.3411L33.9382 14.3397L33.9425 14.3382L33.9468 14.3368L33.951 14.3354L33.9553 14.334L33.9595 14.3326L33.9638 14.3311L33.968 14.3297L33.9723 14.3283L33.9766 14.3269L33.9808 14.3255L33.9851 14.324L33.9893 14.3226L33.9931 14.3214L34.5094 16.0689C34.3301 16.1275 34.1523 16.184 33.9767 16.2398Z" fill="#E9856F" stroke="black" stroke-width="0.4"></path> <path d="M38.5718 15.2568C38.0266 15.3341 37.451 15.4156 36.8994 15.5253L36.542 13.7385C37.1458 13.6198 37.7689 13.5084 38.3623 13.4562L38.6018 15.2525C38.5918 15.254 38.5818 15.2554 38.5718 15.2568Z" fill="#E9856F" stroke="black" stroke-width="0.4"></path> <path d="M41.0613 13.2H42.8902V15.0289H41.0613V13.2Z" fill="#E9856F" stroke="black" stroke-width="0.4"></path> <path d="M13.2 41.0613H15.0289V42.8902H13.2V41.0613Z" fill="#E9856F" stroke="black" stroke-width="0.4"></path> <path d="M47.5082 70.2692C46.8783 70.4145 46.2496 70.5003 45.6414 70.5811L45.4422 68.7482C45.4537 68.7466 45.4653 68.7449 45.4769 68.7433C46.0221 68.666 46.5977 68.5845 47.1493 68.4748L47.5082 70.2692Z" fill="#E9856F" stroke="black" stroke-width="0.4"></path> <path d="M51.7961 69.135C51.2357 69.3323 50.648 69.5258 50.0587 69.6896L49.5415 67.9388C50.0884 67.7821 50.6386 67.6206 51.1616 67.4297L51.7961 69.135Z" fill="#E9856F" stroke="black" stroke-width="0.4"></path> <path d="M55.9481 67.1945C55.3873 67.5144 54.8343 67.8241 54.2834 68.0734L53.4844 66.3953C54.0018 66.1493 54.5182 65.8744 55.0306 65.5988L55.9481 67.1945Z" fill="#E9856F" stroke="black" stroke-width="0.4"></path> <path d="M59.6728 64.7212C59.1892 65.1181 58.6787 65.5067 58.1676 65.8345L57.1301 64.3182C57.6046 63.9944 58.0756 63.642 58.5174 63.2869L59.6728 64.7212Z" fill="#E9856F" stroke="black" stroke-width="0.4"></path> <path d="M63.0606 61.6605C62.619 62.135 62.1505 62.6037 61.7092 63.0127L60.4768 61.661C60.9082 61.262 61.3103 60.8599 61.7093 60.4284L63.0606 61.6605Z" fill="#E9856F" stroke="black" stroke-width="0.4"></path> <path d="M64.7837 59.6383C64.7765 59.6478 64.7693 59.6574 64.7622 59.6669L63.3344 58.5167C63.6849 58.0722 64.0054 57.6001 64.3189 57.1307L65.8344 58.1676C65.5153 58.6657 65.1418 59.1623 64.7837 59.6383Z" fill="#E9856F" stroke="black" stroke-width="0.4"></path> <path d="M68.1205 54.1896C67.8402 54.8173 67.5585 55.3783 67.2476 55.9017L65.6477 54.9817C65.9239 54.4682 66.1993 53.9506 66.4459 53.432L68.1205 54.1896Z" fill="#E9856F" stroke="black" stroke-width="0.4"></path> <path d="M69.6505 50.0172C69.5192 50.6079 69.3247 51.2012 69.0927 51.7985L67.3809 51.1616C67.5723 50.6373 67.7341 50.0857 67.8912 49.5374L69.6505 50.0172Z" fill="#E9856F" stroke="black" stroke-width="0.4"></path> <path d="M68.7966 45.3933L70.6192 45.5914C70.5628 45.9069 70.513 46.2151 70.4636 46.5215L70.4634 46.5227C70.4133 46.8334 70.3635 47.1422 70.307 47.4572L68.5232 47.1005C68.6328 46.5488 68.7144 45.9732 68.7917 45.428C68.7933 45.4164 68.7949 45.4049 68.7966 45.3933Z" fill="#E9856F" stroke="black" stroke-width="0.4"></path> <path d="M68.971 41.0613H70.7999V42.8902H68.971V41.0613Z" fill="#E9856F" stroke="black" stroke-width="0.4"></path> <path d="M41.0613 68.971H42.8902V70.7999H41.0613V68.971Z" fill="#E9856F" stroke="black" stroke-width="0.4"></path> </svg> 