<?xml version="1.0" encoding="UTF-8"?> <svg xmlns="http://www.w3.org/2000/svg" width="83" height="83" viewBox="0 0 83 83" fill="none"> <circle cx="41.5" cy="41.5" r="41" stroke="#E9856F"></circle> <circle cx="41.5" cy="41.5" r="37.2" stroke="white" stroke-opacity="0.45" stroke-width="0.6"></circle> <path d="M41.0777 64.3389H41.079V65.9206H41.0771H41.0751H41.0731H41.071H41.069H41.067H41.065H41.063H41.061H41.0589H41.0569H41.0549H41.0529H41.0509H41.0488H41.0468H41.0448H41.0428H41.0408H41.0387H41.0367H41.0347H41.0327H41.0307H41.0286H41.0266H41.0246H41.0226H41.0206H41.0185H41.0165H41.0145H41.0125H41.0105H41.0084H41.0064H41.0044H41.0024H41.0004H40.9983H40.9963H40.9943H40.9923H40.9903H40.9883H40.9862H40.9842H40.9822H40.9802H40.9782H40.9761H40.9741H40.9721H40.9701H40.9681H40.966H40.964H40.962H40.96H40.958H40.9559H40.9539H40.9519H40.9499H40.9479H40.9458H40.9438H40.9418H40.9398H40.9378H40.9357H40.9337H40.9317H40.9297H40.9277H40.9257H40.9236H40.9216H40.9196H40.9176H40.9156H40.9135H40.9115H40.9095H40.9075H40.9055H40.9034H40.9014H40.8994H40.8974H40.8954H40.8933H40.8913H40.8893H40.8873H40.8853H40.8832H40.8812H40.8792H40.8772H40.8752H40.8731H40.8711H40.8691H40.8671H40.8651H40.8631H40.861H40.859H40.857H40.855H40.853H40.8509H40.8489H40.8469H40.8449H40.8429H40.8408H40.8388H40.8368H40.8348H40.8328H40.8307H40.8287H40.8267H40.8247H40.8227H40.8206H40.8186H40.8166H40.8146H40.8126H40.8105H40.8085H40.8065H40.8045H40.8025H40.8004H40.7984H40.7964H40.7944H40.7924H40.7904H40.7883H40.7863H40.7843H40.7823H40.7803H40.7782H40.7762H40.7742H40.7722H40.7702H40.7681H40.7661H40.7641H40.7621H40.7601H40.758H40.756H40.754H40.752H40.75H40.7479H40.7459H40.7439H40.7419H40.7399H40.7378H40.7358H40.7338H40.7318H40.7298H40.7278H40.7257H40.7237H40.7217H40.7197H40.7177H40.7156H40.7136H40.7116H40.7096H40.7076H40.7055H40.7035H40.7015H40.6995H40.6975H40.6954H40.6934H40.6914H40.6894H40.6874H40.6853H40.6833H40.6813H40.6793H40.6773H40.6752H40.6732H40.6712H40.6692H40.6672H40.6652H40.6631H40.6611H40.6591H40.6571H40.6551H40.653H40.651H40.649H40.647H40.645H40.6429H40.6409H40.6389H40.6369H40.6349H40.6328H40.6308H40.6288H40.6268H40.6248H40.6227H40.6207H40.6187H40.6167H40.6147H40.6126H40.6106H40.6086H40.6066H40.6046H40.6025H40.6005H40.5985H40.5965H40.5945H40.5925H40.5904H40.5884H40.5864H40.5844H40.5824H40.5803H40.5783H40.5763H40.5743H40.5723H40.5702H40.5682H40.5662H40.5642H40.5622H40.5601H40.5581H40.5561H40.5541H40.5521H40.55H40.548H40.546H40.544H40.542H40.5399H40.5379H40.5359H40.5339H40.5319H40.5299H40.5278H40.5258H40.5238H40.5218H40.5198H40.5177H40.5157H40.5137H40.5117H40.5097H40.5076H40.5056H40.5036H40.5016H40.4996H40.4975H40.4955H40.4935H40.4915H40.4895H40.4874H40.4854H40.4834H40.4814H40.4794H40.4773H40.4753H40.4733H40.4713H40.4693H40.4672H40.4652H40.4632H40.4612H40.4592H40.4572H40.4551H40.454L40.5228 64.3389H40.5234H40.5252H40.5271H40.5289H40.5308H40.5326H40.5345H40.5363H40.5382H40.54H40.5419H40.5437H40.5456H40.5474H40.5493H40.5512H40.553H40.5549H40.5567H40.5586H40.5605H40.5623H40.5642H40.566H40.5679H40.5698H40.5716H40.5735H40.5754H40.5772H40.5791H40.581H40.5828H40.5847H40.5866H40.5884H40.5903H40.5922H40.594H40.5959H40.5978H40.5996H40.6015H40.6034H40.6052H40.6071H40.609H40.6109H40.6127H40.6146H40.6165H40.6184H40.6202H40.6221H40.624H40.6259H40.6277H40.6296H40.6315H40.6334H40.6352H40.6371H40.639H40.6409H40.6428H40.6446H40.6465H40.6484H40.6503H40.6522H40.654H40.6559H40.6578H40.6597H40.6616H40.6634H40.6653H40.6672H40.6691H40.671H40.6729H40.6747H40.6766H40.6785H40.6804H40.6823H40.6842H40.6861H40.6879H40.6898H40.6917H40.6936H40.6955H40.6974H40.6993H40.7011H40.703H40.7049H40.7068H40.7087H40.7106H40.7125H40.7144H40.7162H40.7181H40.72H40.7219H40.7238H40.7257H40.7276H40.7295H40.7314H40.7333H40.7351H40.737H40.7389H40.7408H40.7427H40.7446H40.7465H40.7484H40.7503H40.7522H40.7541H40.7559H40.7578H40.7597H40.7616H40.7635H40.7654H40.7673H40.7692H40.7711H40.773H40.7749H40.7768H40.7787H40.7806H40.7824H40.7843H40.7862H40.7881H40.79H40.7919H40.7938H40.7957H40.7976H40.7995H40.8014H40.8033H40.8052H40.8071H40.8089H40.8108H40.8127H40.8146H40.8165H40.8184H40.8203H40.8222H40.8241H40.826H40.8279H40.8298H40.8317H40.8336H40.8354H40.8373H40.8392H40.8411H40.843H40.8449H40.8468H40.8487H40.8506H40.8525H40.8544H40.8563H40.8582H40.86H40.8619H40.8638H40.8657H40.8676H40.8695H40.8714H40.8733H40.8752H40.8771H40.879H40.8808H40.8827H40.8846H40.8865H40.8884H40.8903H40.8922H40.8941H40.896H40.8979H40.8997H40.9016H40.9035H40.9054H40.9073H40.9092H40.9111H40.913H40.9148H40.9167H40.9186H40.9205H40.9224H40.9243H40.9262H40.928H40.9299H40.9318H40.9337H40.9356H40.9375H40.9393H40.9412H40.9431H40.945H40.9469H40.9488H40.9506H40.9525H40.9544H40.9563H40.9582H40.96H40.9619H40.9638H40.9657H40.9676H40.9694H40.9713H40.9732H40.9751H40.977H40.9788H40.9807H40.9826H40.9845H40.9863H40.9882H40.9901H40.992H40.9938H40.9957H40.9976H40.9995H41.0013H41.0032H41.0051H41.0069H41.0088H41.0107H41.0126H41.0144H41.0163H41.0182H41.02H41.0219H41.0238H41.0256H41.0275H41.0294H41.0312H41.0331H41.035H41.0368H41.0387H41.0406H41.0424H41.0443H41.0461H41.048H41.0499H41.0517H41.0536H41.0554H41.0573H41.0592H41.061H41.0629H41.0647H41.0666H41.0684H41.0703H41.0722H41.074H41.0759H41.0777Z" fill="#E9856F" stroke="black" stroke-width="0.4"></path> <path d="M38.0048 65.725C37.4517 65.6555 36.9065 65.584 36.3874 65.4881L36.6978 63.9014C37.1882 63.998 37.7013 64.0699 38.2117 64.1383L38.0048 65.725ZM34.0305 64.8843C33.5081 64.7398 32.9648 64.5679 32.4452 64.3689L32.9971 62.8857C33.476 63.0564 33.9591 63.2257 34.4433 63.3709L34.0305 64.8843ZM30.8487 61.9959L30.1969 63.4366C30.1058 63.3915 30.0143 63.3466 29.9225 63.3015C29.5183 63.1029 29.1097 62.9021 28.7153 62.6847L29.5085 61.3053C29.9524 61.544 30.4 61.7819 30.8487 61.9959ZM27.5163 60.0993L26.6234 61.4043C26.1734 61.0924 25.7261 60.7796 25.2794 60.4424L26.2787 59.202C26.6889 59.5093 27.1022 59.8162 27.5163 60.0993ZM23.4318 58.8579C23.0244 58.4784 22.6423 58.0963 22.2627 57.6889L23.432 56.6227C23.6855 56.8916 23.9519 57.1495 24.2095 57.3989C24.3088 57.4951 24.4068 57.59 24.5023 57.6838L23.4318 58.8579ZM21.9187 54.7989L20.6728 55.8026C20.3362 55.3841 20.0234 54.9363 19.7113 54.4576L21.0214 53.5613C21.3045 53.9754 21.6114 54.3887 21.9187 54.7989ZM19.1243 50.2722C19.3355 50.7211 19.5713 51.1897 19.8108 51.6148L18.4355 52.4056C18.1666 51.9235 17.9223 51.4379 17.68 50.9256L19.1243 50.2722ZM18.235 48.1235L16.7524 48.6752C16.5985 48.2662 16.4751 47.8565 16.3456 47.4265C16.312 47.3153 16.2781 47.2026 16.2432 47.0883L17.7498 46.6774C17.8949 47.1616 18.0643 47.6447 18.235 48.1235ZM15.4298 43.1165L16.9826 42.9095C17.0518 43.4192 17.1241 43.9098 17.2214 44.4233L15.6765 44.7322C15.573 44.1769 15.4765 43.633 15.4298 43.1165Z" fill="#E9856F" stroke="black" stroke-width="0.4"></path> <path d="M16.7817 40.5549L15.2 40.6236V40.6225V40.6205V40.6185V40.6164V40.6144V40.6124V40.6104V40.6084V40.6063V40.6043V40.6023V40.6003V40.5983V40.5962V40.5942V40.5922V40.5902V40.5882V40.5861V40.5841V40.5821V40.5801V40.5781V40.576V40.574V40.572V40.57V40.568V40.566V40.5639V40.5619V40.5599V40.5579V40.5559V40.5538V40.5518V40.5498V40.5478V40.5458V40.5437V40.5417V40.5397V40.5377V40.5357V40.5336V40.5316V40.5296V40.5276V40.5256V40.5235V40.5215V40.5195V40.5175V40.5155V40.5134V40.5114V40.5094V40.5074V40.5054V40.5034V40.5013V40.4993V40.4973V40.4953V40.4933V40.4912V40.4892V40.4872V40.4852V40.4832V40.4811V40.4791V40.4771V40.4751V40.4731V40.471V40.469V40.467V40.465V40.463V40.4609V40.4589V40.4569V40.4549V40.4529V40.4508V40.4488V40.4468V40.4448V40.4428V40.4407V40.4387V40.4367V40.4347V40.4327V40.4307V40.4286V40.4266V40.4246V40.4226V40.4206V40.4185V40.4165V40.4145V40.4125V40.4105V40.4084V40.4064V40.4044V40.4024V40.4004V40.3983V40.3963V40.3943V40.3923V40.3903V40.3882V40.3862V40.3842V40.3822V40.3802V40.3781V40.3761V40.3741V40.3721V40.3701V40.3681V40.366V40.364V40.362V40.36V40.358V40.3559V40.3539V40.3519V40.3499V40.3479V40.3458V40.3438V40.3418V40.3398V40.3378V40.3357V40.3337V40.3317V40.3297V40.3277V40.3256V40.3236V40.3216V40.3196V40.3176V40.3155V40.3135V40.3115V40.3095V40.3075V40.3055V40.3034V40.3014V40.2994V40.2974V40.2954V40.2933V40.2913V40.2893V40.2873V40.2853V40.2832V40.2812V40.2792V40.2772V40.2752V40.2731V40.2711V40.2691V40.2671V40.2651V40.263V40.261V40.259V40.257V40.255V40.2529V40.2509V40.2489V40.2469V40.2449V40.2428V40.2408V40.2388V40.2368V40.2348V40.2328V40.2307V40.2287V40.2267V40.2247V40.2227V40.2206V40.2186V40.2166V40.2146V40.2126V40.2105V40.2085V40.2065V40.2045V40.2025V40.2004V40.1984V40.1964V40.1944V40.1924V40.1903V40.1883V40.1863V40.1843V40.1823V40.1802V40.1782V40.1762V40.1742V40.1722V40.1702V40.1681V40.1661V40.1641V40.1621V40.1601V40.158V40.156V40.154V40.152V40.15V40.1479V40.1459V40.1439V40.1419V40.1399V40.1378V40.1358V40.1338V40.1318V40.1298V40.1277V40.1257V40.1237V40.1217V40.1197V40.1176V40.1156V40.1136V40.1116V40.1096V40.1076V40.1055V40.1035V40.1015V40.0995V40.0975V40.0954V40.0934V40.0914V40.0894V40.0874V40.0853V40.0833V40.0813V40.0793V40.0773V40.0752V40.0732V40.0712V40.0692V40.0672V40.0651V40.0631V40.0611V40.0591V40.0571V40.055V40.053V40.051V40.049V40.047V40.0449V40.0429V40.0409V40.0389V40.0369V40.0349V40.0328V40.0308V40.0288V40.0268V40.0248V40.0227V40.0207V40.0187V40.0167V40.0147V40.0126V40.0106V40.0086V40.0066V40.0046V40.0025V40.0005V39.9986H16.7817V39.9999V40.0018V40.0036V40.0055V40.0073V40.0092V40.011V40.0129V40.0148V40.0166V40.0185V40.0203V40.0222V40.024V40.0259V40.0278V40.0296V40.0315V40.0333V40.0352V40.0371V40.0389V40.0408V40.0427V40.0445V40.0464V40.0483V40.0501V40.052V40.0539V40.0557V40.0576V40.0595V40.0613V40.0632V40.0651V40.0669V40.0688V40.0707V40.0726V40.0744V40.0763V40.0782V40.08V40.0819V40.0838V40.0857V40.0875V40.0894V40.0913V40.0932V40.095V40.0969V40.0988V40.1007V40.1025V40.1044V40.1063V40.1082V40.1101V40.1119V40.1138V40.1157V40.1176V40.1195V40.1213V40.1232V40.1251V40.127V40.1289V40.1307V40.1326V40.1345V40.1364V40.1383V40.1402V40.142V40.1439V40.1458V40.1477V40.1496V40.1515V40.1534V40.1552V40.1571V40.159V40.1609V40.1628V40.1647V40.1666V40.1684V40.1703V40.1722V40.1741V40.176V40.1779V40.1798V40.1817V40.1836V40.1854V40.1873V40.1892V40.1911V40.193V40.1949V40.1968V40.1987V40.2006V40.2025V40.2043V40.2062V40.2081V40.21V40.2119V40.2138V40.2157V40.2176V40.2195V40.2214V40.2233V40.2251V40.227V40.2289V40.2308V40.2327V40.2346V40.2365V40.2384V40.2403V40.2422V40.2441V40.246V40.2479V40.2498V40.2516V40.2535V40.2554V40.2573V40.2592V40.2611V40.263V40.2649V40.2668V40.2687V40.2706V40.2725V40.2744V40.2763V40.2781V40.28V40.2819V40.2838V40.2857V40.2876V40.2895V40.2914V40.2933V40.2952V40.2971V40.299V40.3009V40.3028V40.3046V40.3065V40.3084V40.3103V40.3122V40.3141V40.316V40.3179V40.3198V40.3217V40.3236V40.3255V40.3274V40.3292V40.3311V40.333V40.3349V40.3368V40.3387V40.3406V40.3425V40.3444V40.3463V40.3482V40.35V40.3519V40.3538V40.3557V40.3576V40.3595V40.3614V40.3633V40.3652V40.367V40.3689V40.3708V40.3727V40.3746V40.3765V40.3784V40.3803V40.3821V40.384V40.3859V40.3878V40.3897V40.3916V40.3935V40.3953V40.3972V40.3991V40.401V40.4029V40.4048V40.4067V40.4085V40.4104V40.4123V40.4142V40.4161V40.4179V40.4198V40.4217V40.4236V40.4255V40.4274V40.4292V40.4311V40.433V40.4349V40.4368V40.4386V40.4405V40.4424V40.4443V40.4461V40.448V40.4499V40.4518V40.4536V40.4555V40.4574V40.4593V40.4611V40.463V40.4649V40.4668V40.4686V40.4705V40.4724V40.4743V40.4761V40.478V40.4799V40.4817V40.4836V40.4855V40.4873V40.4892V40.4911V40.4929V40.4948V40.4967V40.4985V40.5004V40.5023V40.5041V40.506V40.5079V40.5097V40.5116V40.5134V40.5153V40.5172V40.519V40.5209V40.5227V40.5246V40.5265V40.5283V40.5302V40.532V40.5339V40.5358V40.5376V40.5395V40.5413V40.5432V40.545V40.5469V40.5487V40.5506V40.5524V40.5543V40.5549Z" fill="#E9856F" stroke="black" stroke-width="0.4"></path> <path d="M40.4881 64.3389H42.0698V65.9206H40.4881V64.3389Z" fill="#E9856F" stroke="black" stroke-width="0.4"></path> <path d="M15.2 39.0508H16.7817V40.6325H15.2V39.0508Z" fill="#E9856F" stroke="black" stroke-width="0.4"></path> <path d="M41.2788 53.9135C44.0178 53.9135 46.5889 53.1173 48.7459 51.7713L54.1583 57.2246C50.5617 59.9148 46.1066 61.4834 41.2788 61.4834C29.7392 61.4834 20.3074 52.4172 19.6903 41.0325H27.2641C27.836 48.2437 33.9136 53.9135 41.2788 53.9135Z" fill="white" stroke="black" stroke-width="0.4"></path> <path d="M19.6903 38.6509C20.307 27.2244 29.7387 18.2 41.2788 18.2C46.1063 18.2 50.5612 19.7684 54.1576 22.4582L48.7465 27.8694C46.5893 26.5232 44.018 25.7268 41.2788 25.7268C33.9115 25.7268 27.8777 31.3989 27.2651 38.6509H19.6903Z" fill="#FFC4B7" stroke="black" stroke-width="0.4"></path> <path d="M41.0788 47.5658C36.8891 47.4593 33.5521 44.0167 33.5521 39.8416C33.5521 35.6261 36.9284 32.2236 41.0788 32.1174V33.6997C37.7862 33.8059 35.1337 36.5239 35.1337 39.8416C35.1337 43.1592 37.7862 45.8772 41.0788 45.9834V47.5658Z" fill="#E9856F" stroke="black" stroke-width="0.4"></path> <path d="M42.5592 39.7001L42.4178 39.8415L42.5592 39.983L59.7482 57.172L59.8951 57.3189L60.0363 57.1665C64.4218 52.4337 66.8102 46.3538 66.8102 39.8415C66.8102 33.3725 64.4219 27.2495 60.0363 22.5166L59.8951 22.3642L59.7482 22.5111L42.5592 39.7001ZM60.4369 59.0007L59.8896 59.5479L40.1832 39.8415L59.8896 20.1351L60.4375 20.683C65.5692 25.8147 68.3488 32.6134 68.3488 39.8415C68.3488 47.0689 65.5266 53.8682 60.4369 59.0007Z" fill="#E9856F" stroke="black" stroke-width="0.4"></path> <path d="M41.4791 39.0511H52.4953V40.6328H41.4791V39.0511Z" fill="#E9856F" stroke="black" stroke-width="0.4"></path> <path d="M62.8038 39.0508H64.3855V40.6325H62.8038V39.0508Z" fill="#E9856F" stroke="black" stroke-width="0.4"></path> <path d="M58.8401 39.0508H60.4218V40.6325H58.8401V39.0508Z" fill="#E9856F" stroke="black" stroke-width="0.4"></path> <path d="M54.877 39.0508H56.4587V40.6325H54.877V39.0508Z" fill="#E9856F" stroke="black" stroke-width="0.4"></path> </svg> 