<?xml version="1.0" encoding="UTF-8"?> <svg xmlns="http://www.w3.org/2000/svg" width="83" height="83" viewBox="0 0 83 83" fill="none"> <circle cx="41.5" cy="41.5" r="41" stroke="#E9856F"></circle> <circle cx="41.5" cy="41.5" r="37.2" stroke="white" stroke-opacity="0.45" stroke-width="0.6"></circle> <path d="M19.2066 28.3504C19.253 27.6506 19.5439 27.019 20.0545 26.5084C20.6133 25.9496 21.3171 25.6539 22.0966 25.6539H61.8343V30.5339H60.4082V27.28V27.08H60.2082H22.0966C21.6932 27.08 21.3224 27.2156 21.0421 27.4959C20.8087 27.7292 20.6757 28.0252 20.6377 28.3504H19.2066Z" fill="#E9856F" stroke="black" stroke-width="0.4"></path> <path d="M24.8372 22.2H56.1572V30.5339H24.8372V22.2Z" fill="white" stroke="black" stroke-width="0.4"></path> <path d="M22.0966 30.0209H65.4867V40.7368H64.0605V31.6471V31.4471H63.8605H22.0966C21.6836 31.4471 21.2789 31.372 20.9156 31.1903L20.6262 31.0456V31.3692V55.9035C20.6262 56.3069 20.7617 56.6777 21.0421 56.9581C21.3224 57.2384 21.6932 57.3739 22.0966 57.3739H63.8605H64.0605V57.1739V48.0842H65.4867V58.8001H22.0966C21.3171 58.8001 20.6133 58.5044 20.0545 57.9456L20.0546 57.9455L20.0496 57.9408C19.4983 57.4263 19.2 56.6871 19.2 55.9035V28.7505H20.6377C20.6757 29.0758 20.8087 29.3717 21.0421 29.605C21.3224 29.8854 21.6932 30.0209 22.0966 30.0209Z" fill="#E9856F" stroke="black" stroke-width="0.4"></path> <path d="M22.8523 53.761H24.2785V55.1872H22.8523V53.761Z" fill="#E9856F" stroke="black" stroke-width="0.4"></path> <path d="M24.2785 50.4265V51.6938H22.8523V50.4265H24.2785ZM24.2785 47.0917V48.3591H22.8523V47.0917H24.2785ZM24.2785 43.7966V45.064H22.8523V43.7966H24.2785ZM24.2785 40.4619V41.7292H22.8523V40.4619H24.2785ZM24.2785 37.1668V38.4342H22.8523V37.1668H24.2785Z" fill="#E9856F" stroke="black" stroke-width="0.4"></path> <path d="M22.8523 33.6729H24.2785V35.0991H22.8523V33.6729Z" fill="#E9856F" stroke="black" stroke-width="0.4"></path> <path d="M58.1424 35.0991H56.6766V33.6729H58.1424V35.0991ZM54.371 35.0991H52.9051V33.6729H54.371V35.0991ZM50.5995 35.0991H49.1336V33.6729H50.5995V35.0991ZM46.8281 35.0991H45.3622V33.6729H46.8281V35.0991ZM43.0963 35.0991H41.6304V33.6729H43.0963V35.0991ZM39.3248 35.0991H37.859V33.6729H39.3248V35.0991ZM35.5534 35.0991H34.0875V33.6729H35.5534V35.0991ZM31.7819 35.0991H30.316V33.6729H31.7819V35.0991ZM28.0502 35.0991H26.5843V33.6729H28.0502V35.0991Z" fill="#E9856F" stroke="black" stroke-width="0.4"></path> <path d="M60.408 33.6729H61.8342V35.0991H60.408V33.6729Z" fill="#E9856F" stroke="black" stroke-width="0.4"></path> <path d="M61.8342 51.6938H60.408V50.4265H61.8342V51.6938ZM61.8342 38.4342H60.408V37.1668H61.8342V38.4342Z" fill="#E9856F" stroke="black" stroke-width="0.4"></path> <path d="M60.408 53.761H61.8342V55.1872H60.408V53.761Z" fill="#E9856F" stroke="black" stroke-width="0.4"></path> <path d="M58.1424 55.1872H56.6766V53.761H58.1424V55.1872ZM54.371 55.1872H52.9051V53.761H54.371V55.1872ZM50.5995 55.1872H49.1336V53.761H50.5995V55.1872ZM46.8281 55.1872H45.3622V53.761H46.8281V55.1872ZM43.0963 55.1872H41.6304V53.761H43.0963V55.1872ZM39.3248 55.1872H37.859V53.761H39.3248V55.1872ZM35.5534 55.1872H34.0875V53.761H35.5534V55.1872ZM31.7819 55.1872H30.316V53.761H31.7819V55.1872ZM28.0502 55.1872H26.5843V53.761H28.0502V55.1872Z" fill="#E9856F" stroke="black" stroke-width="0.4"></path> <path d="M65.6867 47.1712H65.8867V46.9712V41.8897V41.6897H65.6867H57.3101C56.5792 41.6897 55.894 41.9907 55.3822 42.5025C54.8704 43.0143 54.5693 43.6996 54.5693 44.4304C54.5693 45.1613 54.8704 45.8465 55.3822 46.3583C55.894 46.8701 56.5792 47.1712 57.3101 47.1712H65.6867ZM67.3129 48.5974H57.3101C56.2097 48.5974 55.1496 48.1803 54.3549 47.3856C53.5602 46.5909 53.1431 45.5308 53.1431 44.4304C53.1431 43.3301 53.5602 42.27 54.3549 41.4753C55.1496 40.6806 56.2097 40.2635 57.3101 40.2635H67.3129V48.5974Z" fill="#E9856F" stroke="black" stroke-width="0.4"></path> <path d="M56.597 43.7173H58.0232V45.1435H56.597V43.7173Z" fill="#E9856F" stroke="black" stroke-width="0.4"></path> </svg> 