<svg width="10" height="11" viewBox="0 0 10 11" fill="none" xmlns="http://www.w3.org/2000/svg">
<path fill-rule="evenodd" clip-rule="evenodd" d="M6.5624 2.81445L2.1624 7.21445V8.55342H3.50137L7.90137 4.15342L6.5624 2.81445ZM5.91717 1.76263C6.0883 1.5915 6.32039 1.49536 6.5624 1.49536C6.80441 1.49536 7.03651 1.5915 7.20764 1.76263L6.78337 2.18689L7.20764 1.76263L8.9532 3.50818L8.52893 3.93245L8.9532 3.50819C9.12432 3.67931 9.22046 3.91141 9.22046 4.15342C9.22046 4.39543 9.12432 4.62753 8.9532 4.79865L4.17417 9.57768C4.06165 9.69021 3.90903 9.75342 3.7499 9.75342H1.8749C1.63289 9.75342 1.4008 9.65728 1.22967 9.48616C1.05854 9.31503 0.962402 9.08293 0.962402 8.84092V7.09536C0.962402 6.97553 0.986005 6.85687 1.03186 6.74616C1.07772 6.63545 1.14493 6.53486 1.22967 6.45013L5.91717 1.76263L6.33739 2.18285L5.91717 1.76263Z" fill="#373A4A"/>
<path fill-rule="evenodd" clip-rule="evenodd" d="M4.88814 2.7917C5.12245 2.55739 5.50235 2.55739 5.73667 2.7917L7.92417 4.9792C8.15848 5.21352 8.15848 5.59342 7.92417 5.82773C7.68985 6.06205 7.30995 6.06205 7.07564 5.82773L4.88814 3.64023C4.65382 3.40592 4.65382 3.02602 4.88814 2.7917Z" fill="#373A4A"/>
</svg>
